  0
SECTION
  2
HEADER
  9
$ACADVER
  1
AC1009
  9
$DWGCODEPAGE
  3
ansi_1252
  9
$INSBASE
 10
0.0
 20
0.0
 30
0.0
  9
$EXTMIN
 10
1.000000000000000E+20
 20
1.000000000000000E+20
 30
1.000000000000000E+20
  9
$EXTMAX
 10
-1.000000000000000E+20
 20
-1.000000000000000E+20
 30
-1.000000000000000E+20
  9
$LIMMIN
 10
0.0
 20
0.0
  9
$LIMMAX
 10
12.0
 20
9.0
  9
$ORTHOMODE
 70
     0
  9
$REGENMODE
 70
     1
  9
$FILLMODE
 70
     1
  9
$QTEXTMODE
 70
     0
  9
$MIRRTEXT
 70
     1
  9
$DRAGMODE
 70
     2
  9
$LTSCALE
 40
1.0
  9
$OSMODE
 70
    37
  9
$ATTMODE
 70
     1
  9
$TEXTSIZE
 40
0.2
  9
$TRACEWID
 40
0.05
  9
$TEXTSTYLE
  7
STANDARD
  9
$CLAYER
  8
HCD_BUILDING_OUTLINE
  9
$CELTYPE
  6
BYLAYER
  9
$CECOLOR
 62
   256
  9
$DIMSCALE
 40
1.0
  9
$DIMASZ
 40
0.18
  9
$DIMEXO
 40
0.0625
  9
$DIMDLI
 40
0.38
  9
$DIMRND
 40
0.0
  9
$DIMDLE
 40
0.0
  9
$DIMEXE
 40
0.18
  9
$DIMTP
 40
0.0
  9
$DIMTM
 40
0.0
  9
$DIMTXT
 40
0.18
  9
$DIMCEN
 40
0.09
  9
$DIMTSZ
 40
0.0
  9
$DIMTOL
 70
     0
  9
$DIMLIM
 70
     0
  9
$DIMTIH
 70
     1
  9
$DIMTOH
 70
     1
  9
$DIMSE1
 70
     0
  9
$DIMSE2
 70
     0
  9
$DIMTAD
 70
     0
  9
$DIMZIN
 70
     0
  9
$DIMBLK
  1

  9
$DIMASO
 70
     1
  9
$DIMSHO
 70
     1
  9
$DIMPOST
  1

  9
$DIMAPOST
  1

  9
$DIMALT
 70
     0
  9
$DIMALTD
 70
     2
  9
$DIMALTF
 40
25.4
  9
$DIMLFAC
 40
1.0
  9
$DIMTOFL
 70
     0
  9
$DIMTVP
 40
0.0
  9
$DIMTIX
 70
     0
  9
$DIMSOXD
 70
     0
  9
$DIMSAH
 70
     0
  9
$DIMBLK1
  1

  9
$DIMBLK2
  1

  9
$DIMSTYLE
  2
STANDARD_ACAD
  9
$DIMCLRD
 70
     0
  9
$DIMCLRE
 70
     0
  9
$DIMCLRT
 70
     0
  9
$DIMTFAC
 40
1.0
  9
$DIMGAP
 40
0.09
  9
$LUNITS
 70
     2
  9
$LUPREC
 70
     3
  9
$SKETCHINC
 40
0.1
  9
$FILLETRAD
 40
0.5
  9
$AUNITS
 70
     0
  9
$AUPREC
 70
     0
  9
$MENU
  1
.
  9
$ELEVATION
 40
0.0
  9
$PELEVATION
 40
0.0
  9
$THICKNESS
 40
0.0
  9
$LIMCHECK
 70
     0
  9
$CHAMFERA
 40
0.0
  9
$CHAMFERB
 40
0.0
  9
$SKPOLY
 70
     0
  9
$TDCREATE
 40
2459074.573008114
  9
$TDUPDATE
 40
2459074.573028102
  9
$TDINDWG
 40
0.0000000116
  9
$TDUSRTIMER
 40
0.0000000116
  9
$USRTIMER
 70
     1
  9
$ANGBASE
 50
0.0
  9
$ANGDIR
 70
     0
  9
$PDMODE
 70
     0
  9
$PDSIZE
 40
0.0
  9
$PLINEWID
 40
0.0
  9
$COORDS
 70
     1
  9
$SPLFRAME
 70
     0
  9
$SPLINETYPE
 70
     6
  9
$SPLINESEGS
 70
     8
  9
$ATTDIA
 70
     0
  9
$ATTREQ
 70
     1
  9
$HANDLING
 70
     1
  9
$HANDSEED
  5
45D
  9
$SURFTAB1
 70
     6
  9
$SURFTAB2
 70
     6
  9
$SURFTYPE
 70
     6
  9
$SURFU
 70
     6
  9
$SURFV
 70
     6
  9
$UCSNAME
  2

  9
$UCSORG
 10
0.0
 20
0.0
 30
0.0
  9
$UCSXDIR
 10
1.0
 20
0.0
 30
0.0
  9
$UCSYDIR
 10
0.0
 20
1.0
 30
0.0
  9
$PUCSNAME
  2

  9
$PUCSORG
 10
0.0
 20
0.0
 30
0.0
  9
$PUCSXDIR
 10
1.0
 20
0.0
 30
0.0
  9
$PUCSYDIR
 10
0.0
 20
1.0
 30
0.0
  9
$USERI1
 70
     0
  9
$USERI2
 70
     0
  9
$USERI3
 70
     0
  9
$USERI4
 70
     0
  9
$USERI5
 70
     0
  9
$USERR1
 40
0.0
  9
$USERR2
 40
0.0
  9
$USERR3
 40
0.0
  9
$USERR4
 40
0.0
  9
$USERR5
 40
0.0
  9
$WORLDVIEW
 70
     1
  9
$SHADEDGE
 70
     3
  9
$SHADEDIF
 70
    70
  9
$TILEMODE
 70
     1
  9
$MAXACTVP
 70
    64
  9
$PLIMCHECK
 70
     0
  9
$PEXTMIN
 10
1.000000000000000E+20
 20
1.000000000000000E+20
 30
1.000000000000000E+20
  9
$PEXTMAX
 10
-1.000000000000000E+20
 20
-1.000000000000000E+20
 30
-1.000000000000000E+20
  9
$PLIMMIN
 10
0.0
 20
0.0
  9
$PLIMMAX
 10
12.0
 20
9.0
  9
$UNITMODE
 70
     0
  9
$VISRETAIN
 70
     1
  9
$PLINEGEN
 70
     0
  9
$PSLTSCALE
 70
     1
  0
ENDSEC
  0
SECTION
  2
TABLES
  0
TABLE
  2
VPORT
 70
     1
  0
VPORT
  2
*ACTIVE
 70
     0
 10
0.0
 20
0.0
 11
1.0
 21
1.0
 12
10.42990654205607
 22
4.5
 13
0.0
 23
0.0
 14
0.5
 24
0.5
 15
0.5
 25
0.5
 16
0.0
 26
0.0
 36
1.0
 17
0.0
 27
0.0
 37
0.0
 40
9.0
 41
1.972972972850329
 42
50.0
 43
0.0
 44
0.0
 50
0.0
 51
0.0
 71
     0
 72
   100
 73
     1
 74
     3
 75
     0
 76
     0
 77
     0
 78
     0
  0
ENDTAB
  0
TABLE
  2
LTYPE
 70
     1
  0
LTYPE
  2
CONTINUOUS
 70
     0
  3
Solid line
 72
    65
 73
     0
 40
0.0
  0
ENDTAB
  0
TABLE
  2
LAYER
 70
     8
  0
LAYER
  2
0
 70
     0
 62
     7
  6
CONTINUOUS
  0
LAYER
  2
HCD_WINDOWS
 70
     0
 62
     5
  6
CONTINUOUS
  0
LAYER
  2
HCD_DOORS
 70
     0
 62
     3
  6
CONTINUOUS
  0
LAYER
  2
HCD_BUILDING_ROOMS
 70
     0
 62
    40
  6
CONTINUOUS
  0
LAYER
  2
HCD_DRAWINGS
 70
     0
 62
   251
  6
CONTINUOUS
  0
LAYER
  2
HCD_PILLARS
 70
     0
 62
     4
  6
CONTINUOUS
  0
LAYER
  2
HCD_BUILDING_OUTLINE
 70
     0
 62
     1
  6
CONTINUOUS
  0
LAYER
  2
HCD_BUILDING_INVISIBLE
 70
     0
 62
     6
  6
CONTINUOUS
  0
ENDTAB
  0
TABLE
  2
STYLE
 70
     1
  0
STYLE
  2
STANDARD
 70
     0
 40
0.0
 41
1.0
 50
0.0
 71
     0
 42
0.2
  3
txt
  4

  0
ENDTAB
  0
TABLE
  2
VIEW
 70
     0
  0
ENDTAB
  0
TABLE
  2
UCS
 70
     0
  0
ENDTAB
  0
TABLE
  2
APPID
 70
     1
  0
APPID
  2
ACAD
 70
     0
  0
ENDTAB
  0
TABLE
  2
DIMSTYLE
 70
     1
  0
DIMSTYLE
  2
STANDARD_ACAD
 70
     0
  3

  4

  5

  6

  7

 40
1.0
 41
0.18
 42
0.0625
 43
0.38
 44
0.18
 45
0.0
 46
0.0
 47
0.0
 48
0.0
140
0.18
141
0.09
142
0.0
143
25.4
144
1.0
145
0.0
146
1.0
147
0.09
 71
     0
 72
     0
 73
     1
 74
     1
 75
     0
 76
     0
 77
     0
 78
     0
170
     0
171
     2
172
     0
173
     0
174
     0
175
     0
176
     0
177
     0
178
     0
  0
ENDTAB
  0
ENDSEC
  0
SECTION
  2
BLOCKS
  0
BLOCK
  8
0
  2
$MODEL_SPACE
 70
     0
 10
0.0
 20
0.0
 30
0.0
  3
$MODEL_SPACE
  1

  0
ENDBLK
  5
21
  8
0
  0
BLOCK
 67
     1
  8
0
  2
$PAPER_SPACE
 70
     0
 10
0.0
 20
0.0
 30
0.0
  3
$PAPER_SPACE
  1

  0
ENDBLK
  5
1D
 67
     1
  8
0
  0
ENDSEC
  0
SECTION
  2
ENTITIES
  0
LINE
  5
6F
  8
HCD_WINDOWS
 10
33.02596238704032
 20
-33.82894334732561
 30
0.0
 11
35.14231150271959
 21
-33.82894334732561
 31
0.0
  0
LINE
  5
70
  8
HCD_WINDOWS
 10
21.8186323728073
 20
-33.85443058713605
 30
0.0
 11
23.93498148848657
 21
-33.85443058713605
 31
0.0
  0
LINE
  5
71
  8
HCD_WINDOWS
 10
9.724696151158739
 20
-33.84594386895611
 30
0.0
 11
11.84104526683801
 21
-33.84594386895611
 31
0.0
  0
LINE
  5
72
  8
HCD_WINDOWS
 10
-2.52347885915664
 20
-33.82790206913756
 30
0.0
 11
-0.4071297434773697
 21
-33.82790206913756
 31
0.0
  0
LINE
  5
73
  8
HCD_WINDOWS
 10
-14.63989175485945
 20
-33.87411856952355
 30
0.0
 11
-12.52354263918018
 21
-33.87411856952355
 31
0.0
  0
LINE
  5
74
  8
HCD_WINDOWS
 10
-25.68595372005269
 20
-33.79372045740416
 30
0.0
 11
-23.56960460437342
 21
-33.79372045740416
 31
0.0
  0
LINE
  5
75
  8
HCD_WINDOWS
 10
-26.93741745540045
 20
27.62155314696037
 30
0.0
 11
-28.97600385327202
 21
27.62155314696037
 31
0.0
  0
LINE
  5
76
  8
HCD_WINDOWS
 10
-14.37741591236862
 20
33.75892101342804
 30
0.0
 11
-22.04941591236728
 21
33.75892101342804
 31
0.0
  0
LINE
  5
77
  8
HCD_WINDOWS
 10
7.434582544602563
 20
33.75892101342804
 30
0.0
 11
-0.2374174553997292
 21
33.75892101342804
 31
0.0
  0
LINE
  5
78
  8
HCD_WINDOWS
 10
25.28658254460152
 20
33.75892101342804
 30
0.0
 11
23.26258254460026
 21
33.75892101342804
 31
0.0
  0
LINE
  5
79
  8
HCD_WINDOWS
 10
28.11058254460205
 20
33.75892101342804
 30
0.0
 11
26.08658254460079
 21
33.75892101342804
 31
0.0
  0
LINE
  5
7A
  8
HCD_WINDOWS
 10
30.93458254460256
 20
33.75892101342804
 30
0.0
 11
28.91058254460133
 21
33.75892101342804
 31
0.0
  0
LINE
  5
7C
  8
HCD_DOORS
 10
-34.28827178513176
 20
-1.454385198530694
 30
0.0
 11
-34.28827178513176
 21
-0.5543851985310653
 31
0.0
  0
LINE
  5
7D
  8
HCD_DOORS
 10
-25.52771360876566
 20
-5.007915067387174
 30
0.0
 11
-25.52771360876566
 21
-6.1079190650442
 31
0.0
  0
LINE
  5
7E
  8
HCD_DOORS
 10
-26.13745627195767
 20
-2.869185504784205
 30
0.0
 11
-27.14472296543285
 21
-2.869185504784205
 31
0.0
  0
LINE
  5
7F
  8
HCD_DOORS
 10
-31.97317208599632
 20
11.82033352242086
 30
0.0
 11
-31.97317208599632
 21
10.92033352242078
 31
0.0
  0
LINE
  5
80
  8
HCD_DOORS
 10
-31.97317208599632
 20
14.25533352242081
 30
0.0
 11
-31.97317208599632
 21
13.35533352242072
 31
0.0
  0
LINE
  5
81
  8
HCD_DOORS
 10
-29.23555716656573
 20
17.1037804177824
 30
0.0
 11
-29.23555716656573
 21
16.20378041778229
 31
0.0
  0
LINE
  5
82
  8
HCD_DOORS
 10
-29.23555716656573
 20
21.8753335224207
 30
0.0
 11
-29.23555716656573
 21
20.97533352242107
 31
0.0
  0
LINE
  5
83
  8
HCD_DOORS
 10
-25.30957102572209
 20
23.86533352242094
 30
0.0
 11
-25.30957102572209
 21
22.96533352242084
 31
0.0
  0
LINE
  5
84
  8
HCD_DOORS
 10
-25.30957102572209
 20
20.16533352242066
 30
0.0
 11
-25.30957102572209
 21
21.06533352242075
 31
0.0
  0
LINE
  5
85
  8
HCD_DOORS
 10
-25.30957102572209
 20
18.61532375262431
 30
0.0
 11
-25.30957102572209
 21
19.51533352242102
 31
0.0
  0
LINE
  5
86
  8
HCD_DOORS
 10
-25.30957102572209
 20
16.44033352242077
 30
0.0
 11
-25.30957102572209
 21
17.34033352242084
 31
0.0
  0
LINE
  5
87
  8
HCD_DOORS
 10
-25.30957102572209
 20
14.52287494251657
 30
0.0
 11
-25.30957102572209
 21
13.62287494251648
 31
0.0
  0
LINE
  5
88
  8
HCD_DOORS
 10
-26.74851642111387
 20
11.82033352242086
 30
0.0
 11
-26.74851642111387
 21
10.92033352242078
 31
0.0
  0
LINE
  5
89
  8
HCD_DOORS
 10
-25.30957102572209
 20
11.82033352242086
 30
0.0
 11
-25.30957102572209
 21
10.92033352242078
 31
0.0
  0
LINE
  5
8A
  8
HCD_DOORS
 10
-23.37164944237473
 20
11.75582099408457
 30
0.0
 11
-23.37164944237473
 21
12.95582099408438
 31
0.0
  0
LINE
  5
8B
  8
HCD_DOORS
 10
-8.339159154630345
 20
12.96468229571445
 30
0.0
 11
-8.339159154630345
 21
11.744031236436
 31
0.0
  0
LINE
  5
8C
  8
HCD_DOORS
 10
-5.385592655812708
 20
11.64439534000365
 30
0.0
 11
-5.385592655812708
 21
10.74627170483809
 31
0.0
  0
LINE
  5
8D
  8
HCD_DOORS
 10
-5.385592655812708
 20
20.21533352242086
 30
0.0
 11
-5.385592655812708
 21
19.31533352242075
 31
0.0
  0
LINE
  5
8E
  8
HCD_DOORS
 10
-8.339159154630558
 20
19.19466838467832
 30
0.0
 11
-8.339159154630558
 21
17.59466838467841
 31
0.0
  0
LINE
  5
8F
  8
HCD_DOORS
 10
-8.339159154630345
 20
22.03956767050995
 30
0.0
 11
-8.339159154630558
 21
20.43956767050958
 31
0.0
  0
LINE
  5
90
  8
HCD_DOORS
 10
-13.6256405251497
 20
18.13032898800402
 30
0.0
 11
-13.6256405251497
 21
16.73032898800437
 31
0.0
  0
LINE
  5
91
  8
HCD_DOORS
 10
-13.6256405251497
 20
20.48032418716792
 30
0.0
 11
-13.6256405251497
 21
19.08032418716783
 31
0.0
  0
LINE
  5
92
  8
HCD_DOORS
 10
-13.6256405251497
 20
24.18031406633798
 30
0.0
 11
-13.6256405251497
 21
22.28031406633789
 31
0.0
  0
LINE
  5
93
  8
HCD_DOORS
 10
19.56285746977687
 20
20.29422299148311
 30
0.0
 11
18.66285746666817
 21
20.29422299148311
 31
0.0
  0
LINE
  5
94
  8
HCD_DOORS
 10
16.09792891670976
 20
20.29422299148311
 30
0.0
 11
15.19792891602903
 21
20.29422299148311
 31
0.0
  0
LINE
  5
95
  8
HCD_DOORS
 10
10.05687735237819
 20
20.16331657857518
 30
0.0
 11
10.75507195054284
 21
20.73129114172645
 31
0.0
  0
LINE
  5
96
  8
HCD_DOORS
 10
10.42827025751468
 20
10.82256768832048
 30
0.0
 11
10.42827025751468
 21
9.924444053154893
 31
0.0
  0
LINE
  5
97
  8
HCD_DOORS
 10
12.48972766558565
 20
11.09015126821161
 30
0.0
 11
13.38972766558346
 21
11.09015126821161
 31
0.0
  0
LINE
  5
98
  8
HCD_DOORS
 10
17.26472766558346
 20
11.09015126821161
 30
0.0
 11
18.16472766558492
 21
11.09015126821161
 31
0.0
  0
LINE
  5
99
  8
HCD_DOORS
 10
24.85460717333845
 20
10.45533340528954
 30
0.0
 11
24.85460717333842
 21
9.555333405289446
 31
0.0
  0
LINE
  5
9A
  8
HCD_DOORS
 10
22.37472766558403
 20
11.09015126821161
 30
0.0
 11
23.2747276655855
 21
11.09015126821161
 31
0.0
  0
LINE
  5
9B
  8
HCD_DOORS
 10
27.45818283541657
 20
12.88533352242091
 30
0.0
 11
27.45818283541657
 21
11.78533352242101
 31
0.0
  0
LINE
  5
9C
  8
HCD_DOORS
 10
27.45818283541657
 20
19.37163681007422
 30
0.0
 11
27.45818283541657
 21
21.1716368100744
 31
0.0
  0
LINE
  5
9D
  8
HCD_DOORS
 10
27.45818283541657
 20
27.77542248691151
 30
0.0
 11
27.45818283541657
 21
25.97542248691133
 31
0.0
  0
LINE
  5
9E
  8
HCD_DOORS
 10
25.79702752408321
 20
30.72448352403697
 30
0.0
 11
26.69702752408467
 21
30.72448352403697
 31
0.0
  0
LINE
  5
9F
  8
HCD_DOORS
 10
24.9240465733325
 20
29.90686059663889
 30
0.0
 11
25.44316331867388
 21
30.64206319795102
 31
0.0
  0
LINE
  5
A0
  8
HCD_DOORS
 10
17.98950952554614
 20
27.21727246228278
 30
0.0
 11
18.88950952554627
 21
27.21727261971394
 31
0.0
  0
LINE
  5
A1
  8
HCD_DOORS
 10
12.76258254460028
 20
27.21727246228278
 30
0.0
 11
14.36258254460246
 21
27.21727246228278
 31
0.0
  0
LINE
  5
A2
  8
HCD_DOORS
 10
-11.74041988782573
 20
27.21727246228278
 30
0.0
 11
-10.14041988782718
 21
27.21727246228278
 31
0.0
  0
LINE
  5
A3
  8
HCD_DOORS
 10
-23.67301348322961
 20
27.21727246228278
 30
0.0
 11
-22.07301348322742
 21
27.21727246228278
 31
0.0
  0
POLYLINE
  5
A5
  8
HCD_BUILDING_ROOMS
 66
     1
 10
0.0
 20
0.0
 30
0.0
  0
VERTEX
  5
A6
  8
HCD_BUILDING_ROOMS
 10
-13.42462485762859
 20
27.21727246228278
 30
0.0
  0
VERTEX
  5
A7
  8
HCD_BUILDING_ROOMS
 10
-24.84078097788254
 20
27.21727246228278
 30
0.0
  0
VERTEX
  5
A8
  8
HCD_BUILDING_ROOMS
 10
-24.84078097788254
 20
27.82618254739381
 30
0.0
  0
VERTEX
  5
A9
  8
HCD_BUILDING_ROOMS
 10
-25.82163673059857
 20
27.82618254739381
 30
0.0
  0
SEQEND
  5
AA
  8
HCD_BUILDING_ROOMS
  0
LINE
  5
AB
  8
HCD_BUILDING_ROOMS
 10
17.23553746068548
 20
27.21727246228278
 30
0.0
 11
19.49301762693723
 21
27.21727246228278
 31
0.0
  0
POLYLINE
  5
AC
  8
HCD_BUILDING_ROOMS
 66
     1
 10
0.0
 20
0.0
 30
0.0
  0
VERTEX
  5
AD
  8
HCD_BUILDING_ROOMS
 10
-2.094567013511188
 20
27.21727246228278
 30
0.0
  0
VERTEX
  5
AE
  8
HCD_BUILDING_ROOMS
 10
17.23553746068548
 20
27.21727246228278
 30
0.0
  0
VERTEX
  5
AF
  8
HCD_BUILDING_ROOMS
 10
17.23553746068548
 20
33.75892101342804
 30
0.0
  0
SEQEND
  5
B0
  8
HCD_BUILDING_ROOMS
  0
POLYLINE
  5
B1
  8
HCD_BUILDING_ROOMS
 66
     1
 10
0.0
 20
0.0
 30
0.0
  0
VERTEX
  5
B2
  8
HCD_BUILDING_ROOMS
 10
-13.42462485762859
 20
33.75892101342804
 30
0.0
  0
VERTEX
  5
B3
  8
HCD_BUILDING_ROOMS
 10
-13.42462485762859
 20
27.21727246228278
 30
0.0
  0
VERTEX
  5
B4
  8
HCD_BUILDING_ROOMS
 10
-2.094567013511188
 20
27.21727246228278
 30
0.0
  0
VERTEX
  5
B5
  8
HCD_BUILDING_ROOMS
 10
-2.094567013511188
 20
33.75892101342804
 30
0.0
  0
SEQEND
  5
B6
  8
HCD_BUILDING_ROOMS
  0
POLYLINE
  5
B7
  8
HCD_BUILDING_ROOMS
 66
     1
 10
0.0
 20
0.0
 30
0.0
  0
VERTEX
  5
B8
  8
HCD_BUILDING_ROOMS
 10
27.45818283541657
 20
30.72448352403697
 30
0.0
  0
VERTEX
  5
B9
  8
HCD_BUILDING_ROOMS
 10
29.1034382151495
 20
30.72448352403697
 30
0.0
  0
VERTEX
  5
BA
  8
HCD_BUILDING_ROOMS
 10
29.1034382151495
 20
33.28173459905977
 30
0.0
  0
VERTEX
  5
BB
  8
HCD_BUILDING_ROOMS
 10
28.64081691227138
 20
33.28173459905977
 30
0.0
  0
VERTEX
  5
BC
  8
HCD_BUILDING_ROOMS
 10
28.64081691227138
 20
33.75892101342804
 30
0.0
  0
SEQEND
  5
BD
  8
HCD_BUILDING_ROOMS
  0
POLYLINE
  5
BE
  8
HCD_BUILDING_ROOMS
 66
     1
 10
0.0
 20
0.0
 30
0.0
  0
VERTEX
  5
BF
  8
HCD_BUILDING_ROOMS
 10
27.45818283541657
 20
24.73285623280778
 30
0.0
  0
VERTEX
  5
C0
  8
HCD_BUILDING_ROOMS
 10
27.45818283541657
 20
30.72448352403697
 30
0.0
  0
VERTEX
  5
C1
  8
HCD_BUILDING_ROOMS
 10
25.50135921100527
 20
30.72448352403697
 30
0.0
  0
VERTEX
  5
C2
  8
HCD_BUILDING_ROOMS
 10
24.84652691102657
 20
29.79707285064222
 30
0.0
  0
VERTEX
  5
C3
  8
HCD_BUILDING_ROOMS
 10
24.84652691102657
 20
29.35314730161465
 30
0.0
  0
VERTEX
  5
C4
  8
HCD_BUILDING_ROOMS
 10
22.54072729353813
 20
29.35314730161465
 30
0.0
  0
SEQEND
  5
C5
  8
HCD_BUILDING_ROOMS
  0
POLYLINE
  5
C6
  8
HCD_BUILDING_ROOMS
 66
     1
 10
0.0
 20
0.0
 30
0.0
  0
VERTEX
  5
C7
  8
HCD_BUILDING_ROOMS
 10
27.45818283541657
 20
15.47927947139017
 30
0.0
  0
VERTEX
  5
C8
  8
HCD_BUILDING_ROOMS
 10
27.45818283541657
 20
24.73285623280778
 30
0.0
  0
VERTEX
  5
C9
  8
HCD_BUILDING_ROOMS
 10
35.55475588958961
 20
24.73285623280778
 30
0.0
  0
SEQEND
  5
CA
  8
HCD_BUILDING_ROOMS
  0
POLYLINE
  5
CB
  8
HCD_BUILDING_ROOMS
 66
     1
 10
0.0
 20
0.0
 30
0.0
  0
VERTEX
  5
CC
  8
HCD_BUILDING_ROOMS
 10
35.55475588958961
 20
9.186415682351104
 30
0.0
  0
VERTEX
  5
CD
  8
HCD_BUILDING_ROOMS
 10
27.45818283541657
 20
9.186415682351104
 30
0.0
  0
VERTEX
  5
CE
  8
HCD_BUILDING_ROOMS
 10
27.45818283541657
 20
15.47927947139019
 30
0.0
  0
VERTEX
  5
CF
  8
HCD_BUILDING_ROOMS
 10
35.55475588958961
 20
15.47927947139017
 30
0.0
  0
SEQEND
  5
D0
  8
HCD_BUILDING_ROOMS
  0
POLYLINE
  5
D1
  8
HCD_BUILDING_ROOMS
 66
     1
 10
0.0
 20
0.0
 30
0.0
  0
VERTEX
  5
D2
  8
HCD_BUILDING_ROOMS
 10
24.85460717333845
 20
11.09015126821161
 30
0.0
  0
VERTEX
  5
D3
  8
HCD_BUILDING_ROOMS
 10
24.85460717333842
 20
9.135282527017381
 30
0.0
  0
VERTEX
  5
D4
  8
HCD_BUILDING_ROOMS
 10
10.42827025751468
 20
9.1353335224209
 30
0.0
  0
SEQEND
  5
D5
  8
HCD_BUILDING_ROOMS
  0
POLYLINE
  5
D6
  8
HCD_BUILDING_ROOMS
 66
     1
 10
0.0
 20
0.0
 30
0.0
  0
VERTEX
  5
D7
  8
HCD_BUILDING_ROOMS
 10
24.85460717333842
 20
15.39873033704853
 30
0.0
  0
VERTEX
  5
D8
  8
HCD_BUILDING_ROOMS
 10
24.85460717333845
 20
11.09015126821161
 30
0.0
  0
VERTEX
  5
D9
  8
HCD_BUILDING_ROOMS
 10
15.42813345180151
 20
11.09015126821161
 30
0.0
  0
SEQEND
  5
DA
  8
HCD_BUILDING_ROOMS
  0
POLYLINE
  5
DB
  8
HCD_BUILDING_ROOMS
 66
     1
 10
0.0
 20
0.0
 30
0.0
  0
VERTEX
  5
DC
  8
HCD_BUILDING_ROOMS
 10
11.6408322845822
 20
18.29137110425151
 30
0.0
  0
VERTEX
  5
DD
  8
HCD_BUILDING_ROOMS
 10
13.54676821930049
 20
20.29422299148311
 30
0.0
  0
VERTEX
  5
DE
  8
HCD_BUILDING_ROOMS
 10
21.44972766558477
 20
20.29422299148311
 30
0.0
  0
VERTEX
  5
DF
  8
HCD_BUILDING_ROOMS
 10
21.44972766558477
 20
24.79736928734744
 30
0.0
  0
VERTEX
  5
E0
  8
HCD_BUILDING_ROOMS
 10
24.85460717333842
 20
24.79736928734744
 30
0.0
  0
VERTEX
  5
E1
  8
HCD_BUILDING_ROOMS
 10
24.85460717333842
 20
15.39873033704853
 30
0.0
  0
VERTEX
  5
E2
  8
HCD_BUILDING_ROOMS
 10
21.44972766558477
 20
15.39873033704853
 30
0.0
  0
VERTEX
  5
E3
  8
HCD_BUILDING_ROOMS
 10
21.44972766558477
 20
20.29422299148311
 30
0.0
  0
SEQEND
  5
E4
  8
HCD_BUILDING_ROOMS
  0
POLYLINE
  5
E5
  8
HCD_BUILDING_ROOMS
 66
     1
 10
0.0
 20
0.0
 30
0.0
  0
VERTEX
  5
E6
  8
HCD_BUILDING_ROOMS
 10
11.6408322845822
 20
15.30011634599353
 30
0.0
  0
VERTEX
  5
E7
  8
HCD_BUILDING_ROOMS
 10
15.42813345180151
 20
15.30011634599353
 30
0.0
  0
VERTEX
  5
E8
  8
HCD_BUILDING_ROOMS
 10
15.42813345180151
 20
11.09015126821161
 30
0.0
  0
VERTEX
  5
E9
  8
HCD_BUILDING_ROOMS
 10
10.42827025751468
 20
11.09015126821161
 30
0.0
  0
SEQEND
  5
EA
  8
HCD_BUILDING_ROOMS
  0
POLYLINE
  5
EB
  8
HCD_BUILDING_ROOMS
 66
     1
 10
0.0
 20
0.0
 30
0.0
  0
VERTEX
  5
EC
  8
HCD_BUILDING_ROOMS
 10
9.908321221428437
 20
20.04246760065208
 30
0.0
  0
VERTEX
  5
ED
  8
HCD_BUILDING_ROOMS
 10
11.6408322845822
 20
18.29137110425151
 30
0.0
  0
VERTEX
  5
EE
  8
HCD_BUILDING_ROOMS
 10
11.6408322845822
 20
15.30011634599352
 30
0.0
  0
VERTEX
  5
EF
  8
HCD_BUILDING_ROOMS
 10
10.42827025751468
 20
15.30011634599352
 30
0.0
  0
SEQEND
  5
F0
  8
HCD_BUILDING_ROOMS
  0
POLYLINE
  5
F1
  8
HCD_BUILDING_ROOMS
 66
     1
 10
0.0
 20
0.0
 30
0.0
  0
VERTEX
  5
F2
  8
HCD_BUILDING_ROOMS
 10
11.90404840629823
 20
24.94743650891721
 30
0.0
  0
VERTEX
  5
F3
  8
HCD_BUILDING_ROOMS
 10
16.00128499214942
 20
24.94743650891721
 30
0.0
  0
VERTEX
  5
F4
  8
HCD_BUILDING_ROOMS
 10
16.00128499214942
 20
21.66597239283353
 30
0.0
  0
VERTEX
  5
F5
  8
HCD_BUILDING_ROOMS
 10
11.90404840629823
 20
21.66597239283353
 30
0.0
  0
SEQEND
  5
F6
  8
HCD_BUILDING_ROOMS
  0
POLYLINE
  5
F7
  8
HCD_BUILDING_ROOMS
 66
     1
 10
0.0
 20
0.0
 30
0.0
  0
VERTEX
  5
F8
  8
HCD_BUILDING_ROOMS
 10
5.027265237429233
 20
15.30011634599352
 30
0.0
  0
VERTEX
  5
F9
  8
HCD_BUILDING_ROOMS
 10
10.42827025751468
 20
15.30011634599352
 30
0.0
  0
VERTEX
  5
FA
  8
HCD_BUILDING_ROOMS
 10
10.42827025751468
 20
9.135333522420915
 30
0.0
  0
VERTEX
  5
FB
  8
HCD_BUILDING_ROOMS
 10
-5.385592655812708
 20
9.135333522420915
 30
0.0
  0
VERTEX
  5
FC
  8
HCD_BUILDING_ROOMS
 10
-5.385592655812708
 20
15.30011634599352
 30
0.0
  0
SEQEND
  5
FD
  8
HCD_BUILDING_ROOMS
  0
POLYLINE
  5
FE
  8
HCD_BUILDING_ROOMS
 66
     1
 10
0.0
 20
0.0
 30
0.0
  0
VERTEX
  5
FF
  8
HCD_BUILDING_ROOMS
 10
5.027265237429233
 20
24.94743650891721
 30
0.0
  0
VERTEX
  5
100
  8
HCD_BUILDING_ROOMS
 10
11.90404840629823
 20
24.94743650891721
 30
0.0
  0
VERTEX
  5
101
  8
HCD_BUILDING_ROOMS
 10
11.90404840629823
 20
21.66597239283353
 30
0.0
  0
VERTEX
  5
102
  8
HCD_BUILDING_ROOMS
 10
9.908321221428437
 20
20.04246760065208
 30
0.0
  0
VERTEX
  5
103
  8
HCD_BUILDING_ROOMS
 10
5.027265237429233
 20
20.04246760065208
 30
0.0
  0
SEQEND
  5
104
  8
HCD_BUILDING_ROOMS
  0
POLYLINE
  5
105
  8
HCD_BUILDING_ROOMS
 66
     1
 10
0.0
 20
0.0
 30
0.0
 70
     1
  0
VERTEX
  5
106
  8
HCD_BUILDING_ROOMS
 10
5.027265237429233
 20
15.30011634599352
 30
0.0
  0
VERTEX
  5
107
  8
HCD_BUILDING_ROOMS
 10
-5.385592655812708
 20
15.30011634599352
 30
0.0
  0
VERTEX
  5
108
  8
HCD_BUILDING_ROOMS
 10
-5.385592655812708
 20
24.94743650891721
 30
0.0
  0
VERTEX
  5
109
  8
HCD_BUILDING_ROOMS
 10
5.027265237429233
 20
24.94743650891721
 30
0.0
  0
SEQEND
  5
10A
  8
HCD_BUILDING_ROOMS
  0
POLYLINE
  5
10B
  8
HCD_BUILDING_ROOMS
 66
     1
 10
0.0
 20
0.0
 30
0.0
  0
VERTEX
  5
10C
  8
HCD_BUILDING_ROOMS
 10
-16.33244557480519
 20
15.60492773641857
 30
0.0
  0
VERTEX
  5
10D
  8
HCD_BUILDING_ROOMS
 10
-20.65637256976696
 20
15.60492773641857
 30
0.0
  0
VERTEX
  5
10E
  8
HCD_BUILDING_ROOMS
 10
-20.65637256976696
 20
9.255333522420806
 30
0.0
  0
SEQEND
  5
10F
  8
HCD_BUILDING_ROOMS
  0
POLYLINE
  5
110
  8
HCD_BUILDING_ROOMS
 66
     1
 10
0.0
 20
0.0
 30
0.0
  0
VERTEX
  5
111
  8
HCD_BUILDING_ROOMS
 10
-25.36741981795511
 20
6.825474414042617
 30
0.0
  0
VERTEX
  5
112
  8
HCD_BUILDING_ROOMS
 10
-25.36741981795511
 20
3.388770769725703
 30
0.0
  0
VERTEX
  5
113
  8
HCD_BUILDING_ROOMS
 10
-23.37164944237473
 20
3.388770769725703
 30
0.0
  0
SEQEND
  5
114
  8
HCD_BUILDING_ROOMS
  0
POLYLINE
  5
115
  8
HCD_BUILDING_ROOMS
 66
     1
 10
0.0
 20
0.0
 30
0.0
  0
VERTEX
  5
116
  8
HCD_BUILDING_ROOMS
 10
-34.28827178513176
 20
15.44807225254456
 30
0.0
  0
VERTEX
  5
117
  8
HCD_BUILDING_ROOMS
 10
-34.28827178513176
 20
-2.80930337529847
 30
0.0
  0
VERTEX
  5
118
  8
HCD_BUILDING_ROOMS
 10
-44.12047420142061
 20
-2.80930337529847
 30
0.0
  0
SEQEND
  5
119
  8
HCD_BUILDING_ROOMS
  0
POLYLINE
  5
11A
  8
HCD_BUILDING_ROOMS
 66
     1
 10
0.0
 20
0.0
 30
0.0
  0
VERTEX
  5
11B
  8
HCD_BUILDING_ROOMS
 10
-34.53438337618535
 20
21.24094658630104
 30
0.0
  0
VERTEX
  5
11C
  8
HCD_BUILDING_ROOMS
 10
-34.28827178513176
 20
21.24094658630104
 30
0.0
  0
VERTEX
  5
11D
  8
HCD_BUILDING_ROOMS
 10
-34.28827178513176
 20
15.44807225254456
 30
0.0
  0
VERTEX
  5
11E
  8
HCD_BUILDING_ROOMS
 10
-44.12047420142061
 20
15.44807225254456
 30
0.0
  0
SEQEND
  5
11F
  8
HCD_BUILDING_ROOMS
  0
POLYLINE
  5
120
  8
HCD_BUILDING_ROOMS
 66
     1
 10
0.0
 20
0.0
 30
0.0
  0
VERTEX
  5
121
  8
HCD_BUILDING_ROOMS
 10
-13.6256405251497
 20
25.09776274843892
 30
0.0
  0
VERTEX
  5
122
  8
HCD_BUILDING_ROOMS
 10
-8.339159154630345
 20
25.09776274843892
 30
0.0
  0
VERTEX
  5
123
  8
HCD_BUILDING_ROOMS
 10
-8.339159154630345
 20
15.60492773641857
 30
0.0
  0
VERTEX
  5
124
  8
HCD_BUILDING_ROOMS
 10
-13.6256405251497
 20
15.6049277364188
 30
0.0
  0
SEQEND
  5
125
  8
HCD_BUILDING_ROOMS
  0
POLYLINE
  5
127
  8
HCD_DRAWINGS
 66
     1
 10
0.0
 20
0.0
 30
0.0
  0
VERTEX
  5
128
  8
HCD_DRAWINGS
 10
34.51398184255596
 20
-25.41466647757926
 30
0.0
  0
VERTEX
  5
129
  8
HCD_DRAWINGS
 10
27.48258254460144
 20
-25.41466647757926
 30
0.0
  0
VERTEX
  5
12A
  8
HCD_DRAWINGS
 10
22.83258254459999
 20
-20.76466647757918
 30
0.0
  0
VERTEX
  5
12B
  8
HCD_DRAWINGS
 10
-16.47741745496295
 20
-20.76479716564706
 30
0.0
  0
VERTEX
  5
12C
  8
HCD_DRAWINGS
 10
-16.47741745539769
 20
0.2953335224207763
 30
0.0
  0
VERTEX
  5
12D
  8
HCD_DRAWINGS
 10
-13.63741745539754
 20
3.135333522420922
 30
0.0
  0
VERTEX
  5
12E
  8
HCD_DRAWINGS
 10
-5.827417455399868
 20
3.135333522420922
 30
0.0
  0
VERTEX
  5
12F
  8
HCD_DRAWINGS
 10
-4.766757283618958
 20
2.074673350640914
 30
0.0
  0
VERTEX
  5
130
  8
HCD_DRAWINGS
 10
23.82192237282199
 20
2.074673350640914
 30
0.0
  0
VERTEX
  5
131
  8
HCD_DRAWINGS
 10
24.88258254459927
 20
3.135333522420922
 30
0.0
  0
VERTEX
  5
132
  8
HCD_DRAWINGS
 10
24.88258254459927
 20
9.135333522420915
 30
0.0
  0
VERTEX
  5
133
  8
HCD_DRAWINGS
 10
27.81258254459954
 20
9.135333522420915
 30
0.0
  0
VERTEX
  5
134
  8
HCD_DRAWINGS
 10
27.81258254459954
 20
-17.04466647757892
 30
0.0
  0
VERTEX
  5
135
  8
HCD_DRAWINGS
 10
28.76258254460028
 20
-17.99466647757919
 30
0.0
  0
VERTEX
  5
136
  8
HCD_DRAWINGS
 10
28.96029893696472
 20
-18.18090135282526
 30
0.0
  0
SEQEND
  5
137
  8
HCD_DRAWINGS
  0
POLYLINE
  5
138
  8
HCD_DRAWINGS
 66
     1
 10
0.0
 20
0.0
 30
0.0
 70
     1
  0
VERTEX
  5
139
  8
HCD_DRAWINGS
 10
-13.07741745539987
 20
-16.96466647757899
 30
0.0
  0
VERTEX
  5
13A
  8
HCD_DRAWINGS
 10
22.76258254460028
 20
-16.96466647757899
 30
0.0
  0
VERTEX
  5
13B
  8
HCD_DRAWINGS
 10
22.76258254460028
 20
-1.525326649358988
 30
0.0
  0
VERTEX
  5
13C
  8
HCD_DRAWINGS
 10
-13.07741745539987
 20
-1.525326649358988
 30
0.0
  0
SEQEND
  5
13D
  8
HCD_DRAWINGS
  0
LINE
  5
13E
  8
HCD_DRAWINGS
 10
30.57879177046109
 20
-20.00583768627877
 30
0.0
 11
29.21878254358217
 21
-18.37349526887949
 31
0.0
  0
LINE
  5
13F
  8
HCD_DRAWINGS
 10
29.21878254358217
 20
-20.00583768627877
 30
0.0
 11
30.57879177046109
 21
-18.37349526887949
 31
0.0
  0
POLYLINE
  5
140
  8
HCD_DRAWINGS
 66
     1
 10
0.0
 20
0.0
 30
0.0
 70
     1
  0
VERTEX
  5
141
  8
HCD_DRAWINGS
 10
30.82578612638373
 20
-19.76916474182264
 30
0.0
  0
VERTEX
  5
142
  8
HCD_DRAWINGS
 10
30.67578612638226
 20
-19.76916474182264
 30
0.0
  0
VERTEX
  5
143
  8
HCD_DRAWINGS
 10
30.67578612638226
 20
-18.56016821333634
 30
0.0
  0
VERTEX
  5
144
  8
HCD_DRAWINGS
 10
30.82578612638373
 20
-18.56016821333634
 30
0.0
  0
SEQEND
  5
145
  8
HCD_DRAWINGS
  0
POLYLINE
  5
146
  8
HCD_DRAWINGS
 66
     1
 10
0.0
 20
0.0
 30
0.0
 70
     1
  0
VERTEX
  5
147
  8
HCD_DRAWINGS
 10
29.21878254358217
 20
-18.37349526887949
 30
0.0
  0
VERTEX
  5
148
  8
HCD_DRAWINGS
 10
30.57879177046109
 20
-18.37349526887949
 30
0.0
  0
VERTEX
  5
149
  8
HCD_DRAWINGS
 10
30.57879177046109
 20
-20.00583768627877
 30
0.0
  0
VERTEX
  5
14A
  8
HCD_DRAWINGS
 10
29.21878254358217
 20
-20.00583768627877
 30
0.0
  0
SEQEND
  5
14B
  8
HCD_DRAWINGS
  0
LINE
  5
14C
  8
HCD_DRAWINGS
 10
36.91258254460173
 20
-25.61466647757936
 30
0.0
 11
37.21258254460101
 21
-24.96466647757899
 31
0.0
  0
POLYLINE
  5
14D
  8
HCD_DRAWINGS
 66
     1
 10
0.0
 20
0.0
 30
0.0
  0
VERTEX
  5
14E
  8
HCD_DRAWINGS
 10
41.4125825446017
 20
-25.6146664775793
 30
0.0
  0
VERTEX
  5
14F
  8
HCD_DRAWINGS
 10
36.91258254460173
 20
-25.61466647757933
 30
0.0
  0
VERTEX
  5
150
  8
HCD_DRAWINGS
 10
37.21258254460101
 20
-26.45254972961862
 30
0.0
  0
SEQEND
  5
151
  8
HCD_DRAWINGS
  0
LINE
  5
152
  8
HCD_DRAWINGS
 10
36.91258254460173
 20
-21.71466647757906
 30
0.0
 11
37.21258254460101
 21
-20.86911376324976
 31
0.0
  0
POLYLINE
  5
153
  8
HCD_DRAWINGS
 66
     1
 10
0.0
 20
0.0
 30
0.0
  0
VERTEX
  5
154
  8
HCD_DRAWINGS
 10
41.4125825446017
 20
-21.71466647757899
 30
0.0
  0
VERTEX
  5
155
  8
HCD_DRAWINGS
 10
36.91258254460173
 20
-21.71466647757902
 30
0.0
  0
VERTEX
  5
156
  8
HCD_DRAWINGS
 10
37.21258254460101
 20
-22.36466647757909
 30
0.0
  0
SEQEND
  5
157
  8
HCD_DRAWINGS
  0
LINE
  5
158
  8
HCD_DRAWINGS
 10
41.4125825446017
 20
-23.66466647757904
 30
0.0
 11
36.91258254460175
 21
-23.66466647757904
 31
0.0
  0
POLYLINE
  5
159
  8
HCD_DRAWINGS
 66
     1
 10
0.0
 20
0.0
 30
0.0
  0
VERTEX
  5
15A
  8
HCD_DRAWINGS
 10
41.1125825446024
 20
-22.46466647757899
 30
0.0
  0
VERTEX
  5
15B
  8
HCD_DRAWINGS
 10
41.4125825446017
 20
-23.66466647757926
 30
0.0
  0
VERTEX
  5
15C
  8
HCD_DRAWINGS
 10
41.1125825446024
 20
-24.86466647757908
 30
0.0
  0
SEQEND
  5
15D
  8
HCD_DRAWINGS
  0
LINE
  5
15E
  8
HCD_DRAWINGS
 10
36.91258254460173
 20
-20.86911376324977
 30
0.0
 11
36.91258254460173
 21
-22.26466647757917
 31
0.0
  0
LINE
  5
15F
  8
HCD_DRAWINGS
 10
37.21258254460101
 20
-20.86911376324976
 30
0.0
 11
37.21258254460101
 21
-22.26466647757917
 31
0.0
  0
LINE
  5
160
  8
HCD_DRAWINGS
 10
37.51258254460028
 20
-20.86911376324975
 30
0.0
 11
37.51258254460028
 21
-22.26466647757917
 31
0.0
  0
LINE
  5
161
  8
HCD_DRAWINGS
 10
37.81258254459956
 20
-20.86911376324974
 30
0.0
 11
37.81258254459956
 21
-22.26466647757917
 31
0.0
  0
LINE
  5
162
  8
HCD_DRAWINGS
 10
38.11258254460247
 20
-20.86911376324973
 30
0.0
 11
38.11258254460247
 21
-22.26466647757917
 31
0.0
  0
LINE
  5
163
  8
HCD_DRAWINGS
 10
38.41258254460173
 20
-20.86911376324972
 30
0.0
 11
38.41258254460173
 21
-22.26466647757917
 31
0.0
  0
LINE
  5
164
  8
HCD_DRAWINGS
 10
38.71258254460102
 20
-20.86911376324972
 30
0.0
 11
38.71258254460102
 21
-22.26466647757917
 31
0.0
  0
LINE
  5
165
  8
HCD_DRAWINGS
 10
39.01258254460028
 20
-20.86911376324971
 30
0.0
 11
39.01258254460028
 21
-22.26466647757917
 31
0.0
  0
LINE
  5
166
  8
HCD_DRAWINGS
 10
39.31258254459956
 20
-20.8691137632497
 30
0.0
 11
39.31258254459956
 21
-22.26466647757917
 31
0.0
  0
LINE
  5
167
  8
HCD_DRAWINGS
 10
39.61258254460247
 20
-20.86911376324969
 30
0.0
 11
39.61258254460247
 21
-22.26466647757917
 31
0.0
  0
LINE
  5
168
  8
HCD_DRAWINGS
 10
39.91258254460173
 20
-20.86911376324968
 30
0.0
 11
39.91258254460173
 21
-22.26466647757917
 31
0.0
  0
LINE
  5
169
  8
HCD_DRAWINGS
 10
40.21258254460101
 20
-20.86911376324968
 30
0.0
 11
40.21258254460101
 21
-22.26466647757917
 31
0.0
  0
LINE
  5
16A
  8
HCD_DRAWINGS
 10
40.51258254460029
 20
-20.86911376324966
 30
0.0
 11
40.51258254460029
 21
-22.26466647757917
 31
0.0
  0
LINE
  5
16B
  8
HCD_DRAWINGS
 10
40.81258254459949
 20
-20.86911376324966
 30
0.0
 11
40.81258254459949
 21
-22.26466647757917
 31
0.0
  0
LINE
  5
16C
  8
HCD_DRAWINGS
 10
41.1125825446024
 20
-20.86911376324965
 30
0.0
 11
41.1125825446024
 21
-22.26466647757917
 31
0.0
  0
LINE
  5
16D
  8
HCD_DRAWINGS
 10
41.4125825446017
 20
-20.86911376324964
 30
0.0
 11
41.4125825446017
 21
-22.26466647757917
 31
0.0
  0
LINE
  5
16E
  8
HCD_DRAWINGS
 10
36.91258254460173
 20
-25.0646664775789
 30
0.0
 11
36.91258254460173
 21
-26.45254972961862
 31
0.0
  0
LINE
  5
16F
  8
HCD_DRAWINGS
 10
37.21258254460101
 20
-25.0646664775789
 30
0.0
 11
37.21258254460101
 21
-26.45254972961862
 31
0.0
  0
LINE
  5
170
  8
HCD_DRAWINGS
 10
37.51258254460028
 20
-25.0646664775789
 30
0.0
 11
37.51258254460028
 21
-26.45254972961862
 31
0.0
  0
LINE
  5
171
  8
HCD_DRAWINGS
 10
37.81258254459956
 20
-25.0646664775789
 30
0.0
 11
37.81258254459956
 21
-26.45254972961862
 31
0.0
  0
LINE
  5
172
  8
HCD_DRAWINGS
 10
38.11258254460247
 20
-25.0646664775789
 30
0.0
 11
38.11258254460247
 21
-26.45254972961862
 31
0.0
  0
LINE
  5
173
  8
HCD_DRAWINGS
 10
38.41258254460173
 20
-25.0646664775789
 30
0.0
 11
38.41258254460173
 21
-26.45254972961862
 31
0.0
  0
LINE
  5
174
  8
HCD_DRAWINGS
 10
38.71258254460102
 20
-25.0646664775789
 30
0.0
 11
38.71258254460102
 21
-26.45254972961862
 31
0.0
  0
LINE
  5
175
  8
HCD_DRAWINGS
 10
39.01258254460028
 20
-25.0646664775789
 30
0.0
 11
39.01258254460028
 21
-26.45254972961862
 31
0.0
  0
LINE
  5
176
  8
HCD_DRAWINGS
 10
39.01258254460028
 20
-25.0646664775789
 30
0.0
 11
39.01258254460028
 21
-26.45254972961862
 31
0.0
  0
LINE
  5
177
  8
HCD_DRAWINGS
 10
39.31258254459956
 20
-25.0646664775789
 30
0.0
 11
39.31258254459956
 21
-26.45254972961862
 31
0.0
  0
LINE
  5
178
  8
HCD_DRAWINGS
 10
39.61258254460247
 20
-25.0646664775789
 30
0.0
 11
39.61258254460247
 21
-26.45254972961862
 31
0.0
  0
LINE
  5
179
  8
HCD_DRAWINGS
 10
39.91258254460173
 20
-25.0646664775789
 30
0.0
 11
39.91258254460173
 21
-26.45254972961862
 31
0.0
  0
LINE
  5
17A
  8
HCD_DRAWINGS
 10
40.21258254460101
 20
-25.0646664775789
 30
0.0
 11
40.21258254460101
 21
-26.45254972961862
 31
0.0
  0
LINE
  5
17B
  8
HCD_DRAWINGS
 10
40.51258254460029
 20
-25.0646664775789
 30
0.0
 11
40.51258254460029
 21
-26.45254972961862
 31
0.0
  0
LINE
  5
17C
  8
HCD_DRAWINGS
 10
40.81258254459949
 20
-25.0646664775789
 30
0.0
 11
40.81258254459949
 21
-26.45254972961862
 31
0.0
  0
LINE
  5
17D
  8
HCD_DRAWINGS
 10
41.1125825446024
 20
-25.0646664775789
 30
0.0
 11
41.1125825446024
 21
-26.45254972961862
 31
0.0
  0
LINE
  5
17E
  8
HCD_DRAWINGS
 10
41.4125825446017
 20
-25.0646664775789
 30
0.0
 11
41.4125825446017
 21
-26.45254972961862
 31
0.0
  0
LINE
  5
17F
  8
HCD_DRAWINGS
 10
37.51258254460028
 20
-24.86466647757908
 30
0.0
 11
37.51258254460028
 21
-24.8146664775789
 31
0.0
  0
LINE
  5
180
  8
HCD_DRAWINGS
 10
37.81258254459956
 20
-24.86466647757908
 30
0.0
 11
37.81258254459956
 21
-24.8146664775789
 31
0.0
  0
LINE
  5
181
  8
HCD_DRAWINGS
 10
38.11258254459882
 20
-24.86466647757908
 30
0.0
 11
38.11258254459882
 21
-24.8146664775789
 31
0.0
  0
LINE
  5
182
  8
HCD_DRAWINGS
 10
38.4125825445981
 20
-24.86466647757908
 30
0.0
 11
38.4125825445981
 21
-24.8146664775789
 31
0.0
  0
LINE
  5
183
  8
HCD_DRAWINGS
 10
38.71258254459737
 20
-24.86466647757908
 30
0.0
 11
38.71258254459737
 21
-24.8146664775789
 31
0.0
  0
LINE
  5
184
  8
HCD_DRAWINGS
 10
39.01258254460028
 20
-24.86466647757908
 30
0.0
 11
39.01258254460028
 21
-24.8146664775789
 31
0.0
  0
LINE
  5
185
  8
HCD_DRAWINGS
 10
39.31258254459955
 20
-24.86466647757908
 30
0.0
 11
39.31258254459955
 21
-24.8146664775789
 31
0.0
  0
LINE
  5
186
  8
HCD_DRAWINGS
 10
36.91258254460173
 20
-22.46466647757899
 30
0.0
 11
36.91258254460173
 21
-22.51466647757917
 31
0.0
  0
LINE
  5
187
  8
HCD_DRAWINGS
 10
36.91258254460175
 20
-22.5646664775789
 30
0.0
 11
36.91258254460175
 21
-24.76466647757917
 31
0.0
  0
LINE
  5
188
  8
HCD_DRAWINGS
 10
37.21258254460101
 20
-22.46466647757899
 30
0.0
 11
37.21258254460099
 21
-22.51466647757917
 31
0.0
  0
LINE
  5
189
  8
HCD_DRAWINGS
 10
37.21258254460103
 20
-24.86466647757908
 30
0.0
 11
37.21258254460103
 21
-24.8146664775789
 31
0.0
  0
LINE
  5
18A
  8
HCD_DRAWINGS
 10
37.21258254460103
 20
-22.5646664775789
 30
0.0
 11
37.21258254460103
 21
-24.76466647757917
 31
0.0
  0
LINE
  5
18B
  8
HCD_DRAWINGS
 10
37.51258254460028
 20
-22.46466647757899
 30
0.0
 11
37.51258254460026
 21
-22.51466647757917
 31
0.0
  0
LINE
  5
18C
  8
HCD_DRAWINGS
 10
37.51258254460029
 20
-22.5646664775789
 30
0.0
 11
37.51258254460029
 21
-24.76466647757917
 31
0.0
  0
LINE
  5
18D
  8
HCD_DRAWINGS
 10
37.81258254459956
 20
-22.51466647757871
 30
0.0
 11
37.81258254459956
 21
-24.71466647757899
 31
0.0
  0
LINE
  5
18E
  8
HCD_DRAWINGS
 10
38.13258254459926
 20
-22.46466647757899
 30
0.0
 11
38.13258254459925
 21
-22.51466647757917
 31
0.0
  0
LINE
  5
18F
  8
HCD_DRAWINGS
 10
38.13258254459927
 20
-22.5646664775789
 30
0.0
 11
38.13258254459927
 21
-24.76466647757917
 31
0.0
  0
LINE
  5
190
  8
HCD_DRAWINGS
 10
38.41258254460173
 20
-22.46466647757899
 30
0.0
 11
38.4125825446017
 21
-22.51466647757917
 31
0.0
  0
LINE
  5
191
  8
HCD_DRAWINGS
 10
38.41258254460175
 20
-22.5646664775789
 30
0.0
 11
38.41258254460175
 21
-24.76466647757917
 31
0.0
  0
LINE
  5
192
  8
HCD_DRAWINGS
 10
38.71258254460101
 20
-22.46466647757899
 30
0.0
 11
38.71258254460098
 21
-22.51466647757917
 31
0.0
  0
LINE
  5
193
  8
HCD_DRAWINGS
 10
38.71258254460102
 20
-24.86466647757908
 30
0.0
 11
38.71258254460102
 21
-24.8146664775789
 31
0.0
  0
LINE
  5
194
  8
HCD_DRAWINGS
 10
38.71258254460102
 20
-22.5646664775789
 30
0.0
 11
38.71258254460102
 21
-24.76466647757917
 31
0.0
  0
LINE
  5
195
  8
HCD_DRAWINGS
 10
39.01258254460026
 20
-22.46466647757899
 30
0.0
 11
39.01258254460025
 21
-22.51466647757917
 31
0.0
  0
LINE
  5
196
  8
HCD_DRAWINGS
 10
39.01258254460028
 20
-24.86466647757908
 30
0.0
 11
39.01258254460028
 21
-24.8146664775789
 31
0.0
  0
LINE
  5
197
  8
HCD_DRAWINGS
 10
39.01258254460028
 20
-22.5646664775789
 30
0.0
 11
39.01258254460028
 21
-24.76466647757917
 31
0.0
  0
LINE
  5
198
  8
HCD_DRAWINGS
 10
39.31258254459955
 20
-22.46466647757899
 30
0.0
 11
39.31258254459955
 21
-22.51466647757918
 31
0.0
  0
LINE
  5
199
  8
HCD_DRAWINGS
 10
39.31258254459955
 20
-24.8146664775789
 30
0.0
 11
39.31258254459955
 21
-24.76466647757871
 31
0.0
  0
LINE
  5
19A
  8
HCD_DRAWINGS
 10
39.31258254459956
 20
-22.56466647757891
 30
0.0
 11
39.31258254459956
 21
-24.76466647757918
 31
0.0
  0
LINE
  5
19B
  8
HCD_DRAWINGS
 10
39.63258254459925
 20
-22.46466647757899
 30
0.0
 11
39.63258254459923
 21
-22.51466647757917
 31
0.0
  0
LINE
  5
19C
  8
HCD_DRAWINGS
 10
39.63258254459926
 20
-24.86466647757908
 30
0.0
 11
39.63258254459926
 21
-24.8146664775789
 31
0.0
  0
LINE
  5
19D
  8
HCD_DRAWINGS
 10
39.63258254459926
 20
-22.5646664775789
 30
0.0
 11
39.63258254459926
 21
-24.76466647757917
 31
0.0
  0
LINE
  5
19E
  8
HCD_DRAWINGS
 10
39.91258254460172
 20
-22.46466647757899
 30
0.0
 11
39.9125825446017
 21
-22.51466647757917
 31
0.0
  0
LINE
  5
19F
  8
HCD_DRAWINGS
 10
39.91258254460173
 20
-24.86466647757908
 30
0.0
 11
39.91258254460173
 21
-24.8146664775789
 31
0.0
  0
LINE
  5
1A0
  8
HCD_DRAWINGS
 10
39.91258254460173
 20
-22.5646664775789
 30
0.0
 11
39.91258254460173
 21
-24.76466647757917
 31
0.0
  0
LINE
  5
1A1
  8
HCD_DRAWINGS
 10
40.21258254460101
 20
-22.46466647757899
 30
0.0
 11
40.21258254460101
 21
-22.51466647757917
 31
0.0
  0
LINE
  5
1A2
  8
HCD_DRAWINGS
 10
40.21258254460101
 20
-24.86466647757908
 30
0.0
 11
40.21258254460101
 21
-24.8146664775789
 31
0.0
  0
LINE
  5
1A3
  8
HCD_DRAWINGS
 10
40.21258254460101
 20
-22.5646664775789
 30
0.0
 11
40.21258254460101
 21
-24.76466647757917
 31
0.0
  0
LINE
  5
1A4
  8
HCD_DRAWINGS
 10
40.51258254460019
 20
-22.46466647757899
 30
0.0
 11
40.51258254460019
 21
-22.51466647757917
 31
0.0
  0
LINE
  5
1A5
  8
HCD_DRAWINGS
 10
40.51258254460029
 20
-24.86466647757908
 30
0.0
 11
40.51258254460029
 21
-24.8146664775789
 31
0.0
  0
LINE
  5
1A6
  8
HCD_DRAWINGS
 10
40.51258254460029
 20
-22.5646664775789
 30
0.0
 11
40.51258254460029
 21
-24.76466647757917
 31
0.0
  0
LINE
  5
1A7
  8
HCD_DRAWINGS
 10
40.81258254459949
 20
-22.46466647757899
 30
0.0
 11
40.81258254459949
 21
-22.51466647757917
 31
0.0
  0
LINE
  5
1A8
  8
HCD_DRAWINGS
 10
40.81258254459949
 20
-24.86466647757908
 30
0.0
 11
40.81258254459949
 21
-24.8146664775789
 31
0.0
  0
LINE
  5
1A9
  8
HCD_DRAWINGS
 10
40.81258254459949
 20
-22.5646664775789
 30
0.0
 11
40.81258254459949
 21
-24.76466647757917
 31
0.0
  0
LINE
  5
1AA
  8
HCD_DRAWINGS
 10
41.1125825446024
 20
-22.46466647757899
 30
0.0
 11
41.1125825446024
 21
-22.51466647757917
 31
0.0
  0
LINE
  5
1AB
  8
HCD_DRAWINGS
 10
41.1125825446024
 20
-24.86466647757908
 30
0.0
 11
41.1125825446024
 21
-24.8146664775789
 31
0.0
  0
LINE
  5
1AC
  8
HCD_DRAWINGS
 10
41.1125825446024
 20
-22.5646664775789
 30
0.0
 11
41.1125825446024
 21
-24.76466647757917
 31
0.0
  0
LINE
  5
1AD
  8
HCD_DRAWINGS
 10
41.4125825446017
 20
-22.46466647757899
 30
0.0
 11
41.4125825446017
 21
-22.51466647757917
 31
0.0
  0
LINE
  5
1AE
  8
HCD_DRAWINGS
 10
41.4125825446017
 20
-24.86466647757908
 30
0.0
 11
41.4125825446017
 21
-24.8146664775789
 31
0.0
  0
LINE
  5
1AF
  8
HCD_DRAWINGS
 10
41.4125825446017
 20
-22.5646664775789
 30
0.0
 11
41.4125825446017
 21
-24.76466647757917
 31
0.0
  0
POLYLINE
  5
1B0
  8
HCD_DRAWINGS
 66
     1
 10
0.0
 20
0.0
 30
0.0
 70
     1
  0
VERTEX
  5
1B1
  8
HCD_DRAWINGS
 10
41.4125825446017
 20
-22.36466647757909
 30
0.0
  0
VERTEX
  5
1B2
  8
HCD_DRAWINGS
 10
36.91258254460173
 20
-22.36466647757909
 30
0.0
  0
VERTEX
  5
1B3
  8
HCD_DRAWINGS
 10
36.91258254460173
 20
-22.46466647757899
 30
0.0
  0
VERTEX
  5
1B4
  8
HCD_DRAWINGS
 10
41.4125825446017
 20
-22.46466647757899
 30
0.0
  0
SEQEND
  5
1B5
  8
HCD_DRAWINGS
  0
POLYLINE
  5
1B6
  8
HCD_DRAWINGS
 66
     1
 10
0.0
 20
0.0
 30
0.0
 70
     1
  0
VERTEX
  5
1B7
  8
HCD_DRAWINGS
 10
36.86258254460247
 20
-22.51466647757918
 30
0.0
  0
VERTEX
  5
1B8
  8
HCD_DRAWINGS
 10
41.46258254460101
 20
-22.51466647757918
 30
0.0
  0
VERTEX
  5
1B9
  8
HCD_DRAWINGS
 10
41.46258254460101
 20
-22.3146664775789
 30
0.0
  0
VERTEX
  5
1BA
  8
HCD_DRAWINGS
 10
36.86258254460247
 20
-22.3146664775789
 30
0.0
  0
SEQEND
  5
1BB
  8
HCD_DRAWINGS
  0
POLYLINE
  5
1BC
  8
HCD_DRAWINGS
 66
     1
 10
0.0
 20
0.0
 30
0.0
 70
     1
  0
VERTEX
  5
1BD
  8
HCD_DRAWINGS
 10
41.51258254460029
 20
-22.26466647757918
 30
0.0
  0
VERTEX
  5
1BE
  8
HCD_DRAWINGS
 10
36.81258254459955
 20
-22.26466647757918
 30
0.0
  0
VERTEX
  5
1BF
  8
HCD_DRAWINGS
 10
36.81258254459955
 20
-22.5646664775789
 30
0.0
  0
VERTEX
  5
1C0
  8
HCD_DRAWINGS
 10
41.51258254460029
 20
-22.5646664775789
 30
0.0
  0
SEQEND
  5
1C1
  8
HCD_DRAWINGS
  0
POLYLINE
  5
1C2
  8
HCD_DRAWINGS
 66
     1
 10
0.0
 20
0.0
 30
0.0
 70
     1
  0
VERTEX
  5
1C3
  8
HCD_DRAWINGS
 10
41.4125825446017
 20
-24.86466647757908
 30
0.0
  0
VERTEX
  5
1C4
  8
HCD_DRAWINGS
 10
36.91258254460173
 20
-24.86466647757908
 30
0.0
  0
VERTEX
  5
1C5
  8
HCD_DRAWINGS
 10
36.91258254460173
 20
-24.96466647757899
 30
0.0
  0
VERTEX
  5
1C6
  8
HCD_DRAWINGS
 10
41.4125825446017
 20
-24.96466647757899
 30
0.0
  0
SEQEND
  5
1C7
  8
HCD_DRAWINGS
  0
POLYLINE
  5
1C8
  8
HCD_DRAWINGS
 66
     1
 10
0.0
 20
0.0
 30
0.0
 70
     1
  0
VERTEX
  5
1C9
  8
HCD_DRAWINGS
 10
36.86258254460247
 20
-25.01466647757917
 30
0.0
  0
VERTEX
  5
1CA
  8
HCD_DRAWINGS
 10
41.46258254460101
 20
-25.01466647757917
 30
0.0
  0
VERTEX
  5
1CB
  8
HCD_DRAWINGS
 10
41.46258254460101
 20
-24.8146664775789
 30
0.0
  0
VERTEX
  5
1CC
  8
HCD_DRAWINGS
 10
36.86258254460247
 20
-24.8146664775789
 30
0.0
  0
SEQEND
  5
1CD
  8
HCD_DRAWINGS
  0
POLYLINE
  5
1CE
  8
HCD_DRAWINGS
 66
     1
 10
0.0
 20
0.0
 30
0.0
 70
     1
  0
VERTEX
  5
1CF
  8
HCD_DRAWINGS
 10
41.51258254460029
 20
-24.76466647757917
 30
0.0
  0
VERTEX
  5
1D0
  8
HCD_DRAWINGS
 10
36.81258254459955
 20
-24.76466647757917
 30
0.0
  0
VERTEX
  5
1D1
  8
HCD_DRAWINGS
 10
36.81258254459955
 20
-25.0646664775789
 30
0.0
  0
VERTEX
  5
1D2
  8
HCD_DRAWINGS
 10
41.51258254460029
 20
-25.0646664775789
 30
0.0
  0
SEQEND
  5
1D3
  8
HCD_DRAWINGS
  0
POLYLINE
  5
1D5
  8
HCD_PILLARS
 66
     1
 10
0.0
 20
0.0
 30
0.0
 70
     1
  0
VERTEX
  5
1D6
  8
HCD_PILLARS
 10
-1.63287064985888
 20
9.535333522421006
 30
0.0
  0
VERTEX
  5
1D7
  8
HCD_PILLARS
 10
-1.232870649861049
 20
9.535333522421006
 30
0.0
  0
VERTEX
  5
1D8
  8
HCD_PILLARS
 10
-1.232870649861049
 20
9.135333522420915
 30
0.0
  0
VERTEX
  5
1D9
  8
HCD_PILLARS
 10
-1.63287064985888
 20
9.135333522420915
 30
0.0
  0
SEQEND
  5
1DA
  8
HCD_PILLARS
  0
POLYLINE
  5
1DB
  8
HCD_PILLARS
 66
     1
 10
0.0
 20
0.0
 30
0.0
 70
     1
  0
VERTEX
  5
1DC
  8
HCD_PILLARS
 10
-25.63741745539754
 20
-8.464666477578987
 30
0.0
  0
VERTEX
  5
1DD
  8
HCD_PILLARS
 10
-25.23741745539972
 20
-8.464666477578987
 30
0.0
  0
VERTEX
  5
1DE
  8
HCD_PILLARS
 10
-25.23741745539972
 20
-8.864666477579078
 30
0.0
  0
VERTEX
  5
1DF
  8
HCD_PILLARS
 10
-25.63741745539754
 20
-8.864666477579078
 30
0.0
  0
SEQEND
  5
1E0
  8
HCD_PILLARS
  0
POLYLINE
  5
1E1
  8
HCD_PILLARS
 66
     1
 10
0.0
 20
0.0
 30
0.0
 70
     1
  0
VERTEX
  5
1E2
  8
HCD_PILLARS
 10
34.36258254460247
 20
-20.46466647757899
 30
0.0
  0
VERTEX
  5
1E3
  8
HCD_PILLARS
 10
34.76258254460026
 20
-20.46466647757899
 30
0.0
  0
VERTEX
  5
1E4
  8
HCD_PILLARS
 10
34.76258254460026
 20
-20.86466647757908
 30
0.0
  0
VERTEX
  5
1E5
  8
HCD_PILLARS
 10
34.36258254460247
 20
-20.86466647757908
 30
0.0
  0
SEQEND
  5
1E6
  8
HCD_PILLARS
  0
POLYLINE
  5
1E7
  8
HCD_PILLARS
 66
     1
 10
0.0
 20
0.0
 30
0.0
 70
     1
  0
VERTEX
  5
1E8
  8
HCD_PILLARS
 10
22.36258254460246
 20
21.53533352242101
 30
0.0
  0
VERTEX
  5
1E9
  8
HCD_PILLARS
 10
22.76258254460028
 20
21.53533352242101
 30
0.0
  0
VERTEX
  5
1EA
  8
HCD_PILLARS
 10
22.76258254460028
 20
21.13533352242092
 30
0.0
  0
VERTEX
  5
1EB
  8
HCD_PILLARS
 10
22.36258254460246
 20
21.13533352242092
 30
0.0
  0
SEQEND
  5
1EC
  8
HCD_PILLARS
  0
POLYLINE
  5
1ED
  8
HCD_PILLARS
 66
     1
 10
0.0
 20
0.0
 30
0.0
 70
     1
  0
VERTEX
  5
1EE
  8
HCD_PILLARS
 10
-1.637417455397539
 20
21.53533352242101
 30
0.0
  0
VERTEX
  5
1EF
  8
HCD_PILLARS
 10
-1.237417455399722
 20
21.53533352242101
 30
0.0
  0
VERTEX
  5
1F0
  8
HCD_PILLARS
 10
-1.237417455399722
 20
21.13533352242092
 30
0.0
  0
VERTEX
  5
1F1
  8
HCD_PILLARS
 10
-1.637417455397539
 20
21.13533352242092
 30
0.0
  0
SEQEND
  5
1F2
  8
HCD_PILLARS
  0
POLYLINE
  5
1F3
  8
HCD_PILLARS
 66
     1
 10
0.0
 20
0.0
 30
0.0
 70
     1
  0
VERTEX
  5
1F4
  8
HCD_PILLARS
 10
-34.63741745539754
 20
27.53533352242101
 30
0.0
  0
VERTEX
  5
1F5
  8
HCD_PILLARS
 10
-34.23741745539972
 20
27.53533352242101
 30
0.0
  0
VERTEX
  5
1F6
  8
HCD_PILLARS
 10
-34.23741745539972
 20
27.13533352242092
 30
0.0
  0
VERTEX
  5
1F7
  8
HCD_PILLARS
 10
-34.63741745539754
 20
27.13533352242092
 30
0.0
  0
SEQEND
  5
1F8
  8
HCD_PILLARS
  0
POLYLINE
  5
1F9
  8
HCD_PILLARS
 66
     1
 10
0.0
 20
0.0
 30
0.0
 70
     1
  0
VERTEX
  5
1FA
  8
HCD_PILLARS
 10
-34.63741745539754
 20
21.53533352242101
 30
0.0
  0
VERTEX
  5
1FB
  8
HCD_PILLARS
 10
-34.23741745539972
 20
21.53533352242101
 30
0.0
  0
VERTEX
  5
1FC
  8
HCD_PILLARS
 10
-34.23741745539972
 20
21.13533352242092
 30
0.0
  0
VERTEX
  5
1FD
  8
HCD_PILLARS
 10
-34.63741745539754
 20
21.13533352242092
 30
0.0
  0
SEQEND
  5
1FE
  8
HCD_PILLARS
  0
POLYLINE
  5
1FF
  8
HCD_PILLARS
 66
     1
 10
0.0
 20
0.0
 30
0.0
 70
     1
  0
VERTEX
  5
200
  8
HCD_PILLARS
 10
-25.63741745539754
 20
15.53533352242101
 30
0.0
  0
VERTEX
  5
201
  8
HCD_PILLARS
 10
-25.23741745539972
 20
15.53533352242101
 30
0.0
  0
VERTEX
  5
202
  8
HCD_PILLARS
 10
-25.23741745539972
 20
15.13533352242092
 30
0.0
  0
VERTEX
  5
203
  8
HCD_PILLARS
 10
-25.63741745539754
 20
15.13533352242092
 30
0.0
  0
SEQEND
  5
204
  8
HCD_PILLARS
  0
POLYLINE
  5
205
  8
HCD_PILLARS
 66
     1
 10
0.0
 20
0.0
 30
0.0
 70
     1
  0
VERTEX
  5
206
  8
HCD_PILLARS
 10
-13.63741745539754
 20
9.535333522421006
 30
0.0
  0
VERTEX
  5
207
  8
HCD_PILLARS
 10
-13.23741745539972
 20
9.535333522421006
 30
0.0
  0
VERTEX
  5
208
  8
HCD_PILLARS
 10
-13.23741745539972
 20
9.135333522420915
 30
0.0
  0
VERTEX
  5
209
  8
HCD_PILLARS
 10
-13.63741745539754
 20
9.135333522420915
 30
0.0
  0
SEQEND
  5
20A
  8
HCD_PILLARS
  0
POLYLINE
  5
20B
  8
HCD_PILLARS
 66
     1
 10
0.0
 20
0.0
 30
0.0
 70
     1
  0
VERTEX
  5
20C
  8
HCD_PILLARS
 10
-13.63741745539754
 20
15.53533352242101
 30
0.0
  0
VERTEX
  5
20D
  8
HCD_PILLARS
 10
-13.23741745539972
 20
15.53533352242101
 30
0.0
  0
VERTEX
  5
20E
  8
HCD_PILLARS
 10
-13.23741745539972
 20
15.13533352242092
 30
0.0
  0
VERTEX
  5
20F
  8
HCD_PILLARS
 10
-13.63741745539754
 20
15.13533352242092
 30
0.0
  0
SEQEND
  5
210
  8
HCD_PILLARS
  0
POLYLINE
  5
211
  8
HCD_PILLARS
 66
     1
 10
0.0
 20
0.0
 30
0.0
 70
     1
  0
VERTEX
  5
212
  8
HCD_PILLARS
 10
-25.63741745539754
 20
21.53533352242101
 30
0.0
  0
VERTEX
  5
213
  8
HCD_PILLARS
 10
-25.23741745539972
 20
21.53533352242101
 30
0.0
  0
VERTEX
  5
214
  8
HCD_PILLARS
 10
-25.23741745539972
 20
21.13533352242092
 30
0.0
  0
VERTEX
  5
215
  8
HCD_PILLARS
 10
-25.63741745539754
 20
21.13533352242092
 30
0.0
  0
SEQEND
  5
216
  8
HCD_PILLARS
  0
POLYLINE
  5
217
  8
HCD_PILLARS
 66
     1
 10
0.0
 20
0.0
 30
0.0
 70
     1
  0
VERTEX
  5
218
  8
HCD_PILLARS
 10
-13.6256405251497
 20
21.53533352242101
 30
0.0
  0
VERTEX
  5
219
  8
HCD_PILLARS
 10
-13.22564052515189
 20
21.53533352242101
 30
0.0
  0
VERTEX
  5
21A
  8
HCD_PILLARS
 10
-13.22564052515189
 20
21.13533352242092
 30
0.0
  0
VERTEX
  5
21B
  8
HCD_PILLARS
 10
-13.6256405251497
 20
21.13533352242092
 30
0.0
  0
SEQEND
  5
21C
  8
HCD_PILLARS
  0
POLYLINE
  5
21D
  8
HCD_PILLARS
 66
     1
 10
0.0
 20
0.0
 30
0.0
 70
     1
  0
VERTEX
  5
21E
  8
HCD_PILLARS
 10
-1.637417455397539
 20
15.53533352242103
 30
0.0
  0
VERTEX
  5
21F
  8
HCD_PILLARS
 10
-1.237417455399722
 20
15.53533352242103
 30
0.0
  0
VERTEX
  5
220
  8
HCD_PILLARS
 10
-1.237417455399722
 20
15.13533352242094
 30
0.0
  0
VERTEX
  5
221
  8
HCD_PILLARS
 10
-1.637417455397539
 20
15.13533352242094
 30
0.0
  0
SEQEND
  5
222
  8
HCD_PILLARS
  0
POLYLINE
  5
223
  8
HCD_PILLARS
 66
     1
 10
0.0
 20
0.0
 30
0.0
 70
     1
  0
VERTEX
  5
224
  8
HCD_PILLARS
 10
10.36258254460246
 20
21.53533352242101
 30
0.0
  0
VERTEX
  5
225
  8
HCD_PILLARS
 10
10.76258254460028
 20
21.53533352242101
 30
0.0
  0
VERTEX
  5
226
  8
HCD_PILLARS
 10
10.76258254460028
 20
21.13533352242092
 30
0.0
  0
VERTEX
  5
227
  8
HCD_PILLARS
 10
10.36258254460246
 20
21.13533352242092
 30
0.0
  0
SEQEND
  5
228
  8
HCD_PILLARS
  0
POLYLINE
  5
229
  8
HCD_PILLARS
 66
     1
 10
0.0
 20
0.0
 30
0.0
 70
     1
  0
VERTEX
  5
22A
  8
HCD_PILLARS
 10
22.36258254460246
 20
15.53533352242101
 30
0.0
  0
VERTEX
  5
22B
  8
HCD_PILLARS
 10
22.76258254460028
 20
15.53533352242101
 30
0.0
  0
VERTEX
  5
22C
  8
HCD_PILLARS
 10
22.76258254460028
 20
15.13533352242092
 30
0.0
  0
VERTEX
  5
22D
  8
HCD_PILLARS
 10
22.36258254460246
 20
15.13533352242092
 30
0.0
  0
SEQEND
  5
22E
  8
HCD_PILLARS
  0
POLYLINE
  5
22F
  8
HCD_PILLARS
 66
     1
 10
0.0
 20
0.0
 30
0.0
 70
     1
  0
VERTEX
  5
230
  8
HCD_PILLARS
 10
10.36258254460246
 20
15.53533352242101
 30
0.0
  0
VERTEX
  5
231
  8
HCD_PILLARS
 10
10.76258254460028
 20
15.53533352242101
 30
0.0
  0
VERTEX
  5
232
  8
HCD_PILLARS
 10
10.76258254460028
 20
15.13533352242092
 30
0.0
  0
VERTEX
  5
233
  8
HCD_PILLARS
 10
10.36258254460246
 20
15.13533352242092
 30
0.0
  0
SEQEND
  5
234
  8
HCD_PILLARS
  0
POLYLINE
  5
235
  8
HCD_PILLARS
 66
     1
 10
0.0
 20
0.0
 30
0.0
 70
     1
  0
VERTEX
  5
236
  8
HCD_PILLARS
 10
10.36258254460246
 20
9.535333522421006
 30
0.0
  0
VERTEX
  5
237
  8
HCD_PILLARS
 10
10.76258254460028
 20
9.535333522421006
 30
0.0
  0
VERTEX
  5
238
  8
HCD_PILLARS
 10
10.76258254460028
 20
9.135333522420915
 30
0.0
  0
VERTEX
  5
239
  8
HCD_PILLARS
 10
10.36258254460246
 20
9.135333522420915
 30
0.0
  0
SEQEND
  5
23A
  8
HCD_PILLARS
  0
POLYLINE
  5
23B
  8
HCD_PILLARS
 66
     1
 10
0.0
 20
0.0
 30
0.0
 70
     1
  0
VERTEX
  5
23C
  8
HCD_PILLARS
 10
22.36258254460246
 20
9.535333522421006
 30
0.0
  0
VERTEX
  5
23D
  8
HCD_PILLARS
 10
22.76258254460028
 20
9.535333522421006
 30
0.0
  0
VERTEX
  5
23E
  8
HCD_PILLARS
 10
22.76258254460028
 20
9.135333522420915
 30
0.0
  0
VERTEX
  5
23F
  8
HCD_PILLARS
 10
22.36258254460246
 20
9.135333522420915
 30
0.0
  0
SEQEND
  5
240
  8
HCD_PILLARS
  0
POLYLINE
  5
241
  8
HCD_PILLARS
 66
     1
 10
0.0
 20
0.0
 30
0.0
 70
     1
  0
VERTEX
  5
242
  8
HCD_PILLARS
 10
34.36258254460247
 20
9.535333522421006
 30
0.0
  0
VERTEX
  5
243
  8
HCD_PILLARS
 10
34.76258254460026
 20
9.535333522421006
 30
0.0
  0
VERTEX
  5
244
  8
HCD_PILLARS
 10
34.76258254460026
 20
9.135333522420915
 30
0.0
  0
VERTEX
  5
245
  8
HCD_PILLARS
 10
34.36258254460247
 20
9.135333522420915
 30
0.0
  0
SEQEND
  5
246
  8
HCD_PILLARS
  0
POLYLINE
  5
247
  8
HCD_PILLARS
 66
     1
 10
0.0
 20
0.0
 30
0.0
 70
     1
  0
VERTEX
  5
248
  8
HCD_PILLARS
 10
34.36258254460247
 20
15.53533352242101
 30
0.0
  0
VERTEX
  5
249
  8
HCD_PILLARS
 10
34.76258254460026
 20
15.53533352242101
 30
0.0
  0
VERTEX
  5
24A
  8
HCD_PILLARS
 10
34.76258254460026
 20
15.13533352242092
 30
0.0
  0
VERTEX
  5
24B
  8
HCD_PILLARS
 10
34.36258254460247
 20
15.13533352242092
 30
0.0
  0
SEQEND
  5
24C
  8
HCD_PILLARS
  0
POLYLINE
  5
24D
  8
HCD_PILLARS
 66
     1
 10
0.0
 20
0.0
 30
0.0
 70
     1
  0
VERTEX
  5
24E
  8
HCD_PILLARS
 10
34.36258254460247
 20
21.53533352242101
 30
0.0
  0
VERTEX
  5
24F
  8
HCD_PILLARS
 10
34.76258254460026
 20
21.53533352242101
 30
0.0
  0
VERTEX
  5
250
  8
HCD_PILLARS
 10
34.76258254460026
 20
21.13533352242092
 30
0.0
  0
VERTEX
  5
251
  8
HCD_PILLARS
 10
34.36258254460247
 20
21.13533352242092
 30
0.0
  0
SEQEND
  5
252
  8
HCD_PILLARS
  0
POLYLINE
  5
253
  8
HCD_PILLARS
 66
     1
 10
0.0
 20
0.0
 30
0.0
 70
     1
  0
VERTEX
  5
254
  8
HCD_PILLARS
 10
34.36258254460247
 20
27.53533352242101
 30
0.0
  0
VERTEX
  5
255
  8
HCD_PILLARS
 10
34.76258254460026
 20
27.53533352242101
 30
0.0
  0
VERTEX
  5
256
  8
HCD_PILLARS
 10
34.76258254460026
 20
27.13533352242092
 30
0.0
  0
VERTEX
  5
257
  8
HCD_PILLARS
 10
34.36258254460247
 20
27.13533352242092
 30
0.0
  0
SEQEND
  5
258
  8
HCD_PILLARS
  0
POLYLINE
  5
259
  8
HCD_PILLARS
 66
     1
 10
0.0
 20
0.0
 30
0.0
 70
     1
  0
VERTEX
  5
25A
  8
HCD_PILLARS
 10
34.36258254460247
 20
33.53533352242101
 30
0.0
  0
VERTEX
  5
25B
  8
HCD_PILLARS
 10
34.76258254460026
 20
33.53533352242101
 30
0.0
  0
VERTEX
  5
25C
  8
HCD_PILLARS
 10
34.76258254460026
 20
33.13533352242092
 30
0.0
  0
VERTEX
  5
25D
  8
HCD_PILLARS
 10
34.36258254460247
 20
33.13533352242092
 30
0.0
  0
SEQEND
  5
25E
  8
HCD_PILLARS
  0
POLYLINE
  5
25F
  8
HCD_PILLARS
 66
     1
 10
0.0
 20
0.0
 30
0.0
 70
     1
  0
VERTEX
  5
260
  8
HCD_PILLARS
 10
-13.63741745539754
 20
33.53533352242101
 30
0.0
  0
VERTEX
  5
261
  8
HCD_PILLARS
 10
-13.23741745539972
 20
33.53533352242101
 30
0.0
  0
VERTEX
  5
262
  8
HCD_PILLARS
 10
-13.23741745539972
 20
33.13533352242092
 30
0.0
  0
VERTEX
  5
263
  8
HCD_PILLARS
 10
-13.63741745539754
 20
33.13533352242092
 30
0.0
  0
SEQEND
  5
264
  8
HCD_PILLARS
  0
POLYLINE
  5
265
  8
HCD_PILLARS
 66
     1
 10
0.0
 20
0.0
 30
0.0
 70
     1
  0
VERTEX
  5
266
  8
HCD_PILLARS
 10
-1.637417455397539
 20
33.53533352242101
 30
0.0
  0
VERTEX
  5
267
  8
HCD_PILLARS
 10
-1.237417455399722
 20
33.53533352242101
 30
0.0
  0
VERTEX
  5
268
  8
HCD_PILLARS
 10
-1.237417455399722
 20
33.13533352242092
 30
0.0
  0
VERTEX
  5
269
  8
HCD_PILLARS
 10
-1.637417455397539
 20
33.13533352242092
 30
0.0
  0
SEQEND
  5
26A
  8
HCD_PILLARS
  0
POLYLINE
  5
26B
  8
HCD_PILLARS
 66
     1
 10
0.0
 20
0.0
 30
0.0
 70
     1
  0
VERTEX
  5
26C
  8
HCD_PILLARS
 10
10.36258254460246
 20
33.53533352242101
 30
0.0
  0
VERTEX
  5
26D
  8
HCD_PILLARS
 10
10.76258254460028
 20
33.53533352242101
 30
0.0
  0
VERTEX
  5
26E
  8
HCD_PILLARS
 10
10.76258254460028
 20
33.13533352242092
 30
0.0
  0
VERTEX
  5
26F
  8
HCD_PILLARS
 10
10.36258254460246
 20
33.13533352242092
 30
0.0
  0
SEQEND
  5
270
  8
HCD_PILLARS
  0
POLYLINE
  5
271
  8
HCD_PILLARS
 66
     1
 10
0.0
 20
0.0
 30
0.0
 70
     1
  0
VERTEX
  5
272
  8
HCD_PILLARS
 10
-25.63741745539754
 20
-32.46466647757899
 30
0.0
  0
VERTEX
  5
273
  8
HCD_PILLARS
 10
-25.23741745539972
 20
-32.46466647757899
 30
0.0
  0
VERTEX
  5
274
  8
HCD_PILLARS
 10
-25.23741745539972
 20
-32.86466647757908
 30
0.0
  0
VERTEX
  5
275
  8
HCD_PILLARS
 10
-25.63741745539754
 20
-32.86466647757908
 30
0.0
  0
SEQEND
  5
276
  8
HCD_PILLARS
  0
POLYLINE
  5
277
  8
HCD_PILLARS
 66
     1
 10
0.0
 20
0.0
 30
0.0
 70
     1
  0
VERTEX
  5
278
  8
HCD_PILLARS
 10
-13.63741745539754
 20
-32.46466647757899
 30
0.0
  0
VERTEX
  5
279
  8
HCD_PILLARS
 10
-13.23741745539972
 20
-32.46466647757899
 30
0.0
  0
VERTEX
  5
27A
  8
HCD_PILLARS
 10
-13.23741745539972
 20
-32.86466647757908
 30
0.0
  0
VERTEX
  5
27B
  8
HCD_PILLARS
 10
-13.63741745539754
 20
-32.86466647757908
 30
0.0
  0
SEQEND
  5
27C
  8
HCD_PILLARS
  0
POLYLINE
  5
27D
  8
HCD_PILLARS
 66
     1
 10
0.0
 20
0.0
 30
0.0
 70
     1
  0
VERTEX
  5
27E
  8
HCD_PILLARS
 10
-1.637417455397539
 20
-32.46466647757899
 30
0.0
  0
VERTEX
  5
27F
  8
HCD_PILLARS
 10
-1.237417455399722
 20
-32.46466647757899
 30
0.0
  0
VERTEX
  5
280
  8
HCD_PILLARS
 10
-1.237417455399722
 20
-32.86466647757908
 30
0.0
  0
VERTEX
  5
281
  8
HCD_PILLARS
 10
-1.637417455397539
 20
-32.86466647757908
 30
0.0
  0
SEQEND
  5
282
  8
HCD_PILLARS
  0
POLYLINE
  5
283
  8
HCD_PILLARS
 66
     1
 10
0.0
 20
0.0
 30
0.0
 70
     1
  0
VERTEX
  5
284
  8
HCD_PILLARS
 10
10.36258254460246
 20
-32.46466647757899
 30
0.0
  0
VERTEX
  5
285
  8
HCD_PILLARS
 10
10.76258254460028
 20
-32.46466647757899
 30
0.0
  0
VERTEX
  5
286
  8
HCD_PILLARS
 10
10.76258254460028
 20
-32.86466647757908
 30
0.0
  0
VERTEX
  5
287
  8
HCD_PILLARS
 10
10.36258254460246
 20
-32.86466647757908
 30
0.0
  0
SEQEND
  5
288
  8
HCD_PILLARS
  0
POLYLINE
  5
289
  8
HCD_PILLARS
 66
     1
 10
0.0
 20
0.0
 30
0.0
 70
     1
  0
VERTEX
  5
28A
  8
HCD_PILLARS
 10
34.36258254460247
 20
-32.46466647757899
 30
0.0
  0
VERTEX
  5
28B
  8
HCD_PILLARS
 10
34.76258254460026
 20
-32.46466647757899
 30
0.0
  0
VERTEX
  5
28C
  8
HCD_PILLARS
 10
34.76258254460026
 20
-32.86466647757908
 30
0.0
  0
VERTEX
  5
28D
  8
HCD_PILLARS
 10
34.36258254460247
 20
-32.86466647757908
 30
0.0
  0
SEQEND
  5
28E
  8
HCD_PILLARS
  0
POLYLINE
  5
28F
  8
HCD_PILLARS
 66
     1
 10
0.0
 20
0.0
 30
0.0
 70
     1
  0
VERTEX
  5
290
  8
HCD_PILLARS
 10
22.36258254460246
 20
-32.46466647757899
 30
0.0
  0
VERTEX
  5
291
  8
HCD_PILLARS
 10
22.76258254460028
 20
-32.46466647757899
 30
0.0
  0
VERTEX
  5
292
  8
HCD_PILLARS
 10
22.76258254460028
 20
-32.86466647757908
 30
0.0
  0
VERTEX
  5
293
  8
HCD_PILLARS
 10
22.36258254460246
 20
-32.86466647757908
 30
0.0
  0
SEQEND
  5
294
  8
HCD_PILLARS
  0
POLYLINE
  5
295
  8
HCD_PILLARS
 66
     1
 10
0.0
 20
0.0
 30
0.0
 70
     1
  0
VERTEX
  5
296
  8
HCD_PILLARS
 10
22.36258254460246
 20
-20.46466647757899
 30
0.0
  0
VERTEX
  5
297
  8
HCD_PILLARS
 10
22.76258254460028
 20
-20.46466647757899
 30
0.0
  0
VERTEX
  5
298
  8
HCD_PILLARS
 10
22.76258254460028
 20
-20.86466647757908
 30
0.0
  0
VERTEX
  5
299
  8
HCD_PILLARS
 10
22.36258254460246
 20
-20.86466647757908
 30
0.0
  0
SEQEND
  5
29A
  8
HCD_PILLARS
  0
POLYLINE
  5
29B
  8
HCD_PILLARS
 66
     1
 10
0.0
 20
0.0
 30
0.0
 70
     1
  0
VERTEX
  5
29C
  8
HCD_PILLARS
 10
10.36258254460246
 20
-20.46466647757899
 30
0.0
  0
VERTEX
  5
29D
  8
HCD_PILLARS
 10
10.76258254460028
 20
-20.46466647757899
 30
0.0
  0
VERTEX
  5
29E
  8
HCD_PILLARS
 10
10.76258254460028
 20
-20.86466647757908
 30
0.0
  0
VERTEX
  5
29F
  8
HCD_PILLARS
 10
10.36258254460246
 20
-20.86466647757908
 30
0.0
  0
SEQEND
  5
2A0
  8
HCD_PILLARS
  0
POLYLINE
  5
2A1
  8
HCD_PILLARS
 66
     1
 10
0.0
 20
0.0
 30
0.0
 70
     1
  0
VERTEX
  5
2A2
  8
HCD_PILLARS
 10
-1.637417455397539
 20
-20.46466647757899
 30
0.0
  0
VERTEX
  5
2A3
  8
HCD_PILLARS
 10
-1.237417455399722
 20
-20.46466647757899
 30
0.0
  0
VERTEX
  5
2A4
  8
HCD_PILLARS
 10
-1.237417455399722
 20
-20.86466647757908
 30
0.0
  0
VERTEX
  5
2A5
  8
HCD_PILLARS
 10
-1.637417455397539
 20
-20.86466647757908
 30
0.0
  0
SEQEND
  5
2A6
  8
HCD_PILLARS
  0
POLYLINE
  5
2A7
  8
HCD_PILLARS
 66
     1
 10
0.0
 20
0.0
 30
0.0
 70
     1
  0
VERTEX
  5
2A8
  8
HCD_PILLARS
 10
-13.63741745539754
 20
-20.46466647757899
 30
0.0
  0
VERTEX
  5
2A9
  8
HCD_PILLARS
 10
-13.23741745539972
 20
-20.46466647757899
 30
0.0
  0
VERTEX
  5
2AA
  8
HCD_PILLARS
 10
-13.23741745539972
 20
-20.86466647757908
 30
0.0
  0
VERTEX
  5
2AB
  8
HCD_PILLARS
 10
-13.63741745539754
 20
-20.86466647757908
 30
0.0
  0
SEQEND
  5
2AC
  8
HCD_PILLARS
  0
POLYLINE
  5
2AD
  8
HCD_PILLARS
 66
     1
 10
0.0
 20
0.0
 30
0.0
 70
     1
  0
VERTEX
  5
2AE
  8
HCD_PILLARS
 10
-25.63741745539754
 20
-20.46466647757899
 30
0.0
  0
VERTEX
  5
2AF
  8
HCD_PILLARS
 10
-25.23741745539972
 20
-20.46466647757899
 30
0.0
  0
VERTEX
  5
2B0
  8
HCD_PILLARS
 10
-25.23741745539972
 20
-20.86466647757908
 30
0.0
  0
VERTEX
  5
2B1
  8
HCD_PILLARS
 10
-25.63741745539754
 20
-20.86466647757908
 30
0.0
  0
SEQEND
  5
2B2
  8
HCD_PILLARS
  0
POLYLINE
  5
2B3
  8
HCD_PILLARS
 66
     1
 10
0.0
 20
0.0
 30
0.0
 70
     1
  0
VERTEX
  5
2B4
  8
HCD_PILLARS
 10
-13.43741745539864
 20
-8.464666477578987
 30
0.0
  0
VERTEX
  5
2B5
  8
HCD_PILLARS
 10
-13.03741745540081
 20
-8.464666477578987
 30
0.0
  0
VERTEX
  5
2B6
  8
HCD_PILLARS
 10
-13.03741745540081
 20
-8.864666477579078
 30
0.0
  0
VERTEX
  5
2B7
  8
HCD_PILLARS
 10
-13.43741745539864
 20
-8.864666477579078
 30
0.0
  0
SEQEND
  5
2B8
  8
HCD_PILLARS
  0
POLYLINE
  5
2B9
  8
HCD_PILLARS
 66
     1
 10
0.0
 20
0.0
 30
0.0
 70
     1
  0
VERTEX
  5
2BA
  8
HCD_PILLARS
 10
22.36258254460246
 20
-8.464666477578987
 30
0.0
  0
VERTEX
  5
2BB
  8
HCD_PILLARS
 10
22.76258254460028
 20
-8.464666477578987
 30
0.0
  0
VERTEX
  5
2BC
  8
HCD_PILLARS
 10
22.76258254460028
 20
-8.864666477579078
 30
0.0
  0
VERTEX
  5
2BD
  8
HCD_PILLARS
 10
22.36258254460246
 20
-8.864666477579078
 30
0.0
  0
SEQEND
  5
2BE
  8
HCD_PILLARS
  0
POLYLINE
  5
2BF
  8
HCD_PILLARS
 66
     1
 10
0.0
 20
0.0
 30
0.0
 70
     1
  0
VERTEX
  5
2C0
  8
HCD_PILLARS
 10
34.36258254460247
 20
-8.464666477578987
 30
0.0
  0
VERTEX
  5
2C1
  8
HCD_PILLARS
 10
34.76258254460026
 20
-8.464666477578987
 30
0.0
  0
VERTEX
  5
2C2
  8
HCD_PILLARS
 10
34.76258254460026
 20
-8.864666477579078
 30
0.0
  0
VERTEX
  5
2C3
  8
HCD_PILLARS
 10
34.36258254460247
 20
-8.864666477579078
 30
0.0
  0
SEQEND
  5
2C4
  8
HCD_PILLARS
  0
POLYLINE
  5
2C5
  8
HCD_PILLARS
 66
     1
 10
0.0
 20
0.0
 30
0.0
 70
     1
  0
VERTEX
  5
2C6
  8
HCD_PILLARS
 10
34.36258254460247
 20
3.535333522421013
 30
0.0
  0
VERTEX
  5
2C7
  8
HCD_PILLARS
 10
34.76258254460026
 20
3.535333522421013
 30
0.0
  0
VERTEX
  5
2C8
  8
HCD_PILLARS
 10
34.76258254460026
 20
3.135333522420922
 30
0.0
  0
VERTEX
  5
2C9
  8
HCD_PILLARS
 10
34.36258254460247
 20
3.135333522420922
 30
0.0
  0
SEQEND
  5
2CA
  8
HCD_PILLARS
  0
POLYLINE
  5
2CB
  8
HCD_PILLARS
 66
     1
 10
0.0
 20
0.0
 30
0.0
 70
     1
  0
VERTEX
  5
2CC
  8
HCD_PILLARS
 10
22.36258254460246
 20
3.535333522421013
 30
0.0
  0
VERTEX
  5
2CD
  8
HCD_PILLARS
 10
22.76258254460028
 20
3.535333522421013
 30
0.0
  0
VERTEX
  5
2CE
  8
HCD_PILLARS
 10
22.76258254460028
 20
3.135333522420922
 30
0.0
  0
VERTEX
  5
2CF
  8
HCD_PILLARS
 10
22.36258254460246
 20
3.135333522420922
 30
0.0
  0
SEQEND
  5
2D0
  8
HCD_PILLARS
  0
POLYLINE
  5
2D1
  8
HCD_PILLARS
 66
     1
 10
0.0
 20
0.0
 30
0.0
 70
     1
  0
VERTEX
  5
2D2
  8
HCD_PILLARS
 10
10.36258254460246
 20
3.535333522421013
 30
0.0
  0
VERTEX
  5
2D3
  8
HCD_PILLARS
 10
10.76258254460028
 20
3.535333522421013
 30
0.0
  0
VERTEX
  5
2D4
  8
HCD_PILLARS
 10
10.76258254460028
 20
3.135333522420922
 30
0.0
  0
VERTEX
  5
2D5
  8
HCD_PILLARS
 10
10.36258254460246
 20
3.135333522420922
 30
0.0
  0
SEQEND
  5
2D6
  8
HCD_PILLARS
  0
POLYLINE
  5
2D7
  8
HCD_PILLARS
 66
     1
 10
0.0
 20
0.0
 30
0.0
 70
     1
  0
VERTEX
  5
2D8
  8
HCD_PILLARS
 10
-1.637417455397539
 20
3.535333522421013
 30
0.0
  0
VERTEX
  5
2D9
  8
HCD_PILLARS
 10
-1.237417455399722
 20
3.535333522421013
 30
0.0
  0
VERTEX
  5
2DA
  8
HCD_PILLARS
 10
-1.237417455399722
 20
3.135333522420922
 30
0.0
  0
VERTEX
  5
2DB
  8
HCD_PILLARS
 10
-1.637417455397539
 20
3.135333522420922
 30
0.0
  0
SEQEND
  5
2DC
  8
HCD_PILLARS
  0
POLYLINE
  5
2DD
  8
HCD_PILLARS
 66
     1
 10
0.0
 20
0.0
 30
0.0
 70
     1
  0
VERTEX
  5
2DE
  8
HCD_PILLARS
 10
-13.63741745539754
 20
3.535333522421013
 30
0.0
  0
VERTEX
  5
2DF
  8
HCD_PILLARS
 10
-13.23741745539972
 20
3.535333522421013
 30
0.0
  0
VERTEX
  5
2E0
  8
HCD_PILLARS
 10
-13.23741745539972
 20
3.135333522420922
 30
0.0
  0
VERTEX
  5
2E1
  8
HCD_PILLARS
 10
-13.63741745539754
 20
3.135333522420922
 30
0.0
  0
SEQEND
  5
2E2
  8
HCD_PILLARS
  0
POLYLINE
  5
2E3
  8
HCD_PILLARS
 66
     1
 10
0.0
 20
0.0
 30
0.0
 70
     1
  0
VERTEX
  5
2E4
  8
HCD_PILLARS
 10
-25.63741745539754
 20
9.535333522421006
 30
0.0
  0
VERTEX
  5
2E5
  8
HCD_PILLARS
 10
-25.23741745539972
 20
9.535333522421006
 30
0.0
  0
VERTEX
  5
2E6
  8
HCD_PILLARS
 10
-25.23741745539972
 20
9.135333522420915
 30
0.0
  0
VERTEX
  5
2E7
  8
HCD_PILLARS
 10
-25.63741745539754
 20
9.135333522420915
 30
0.0
  0
SEQEND
  5
2E8
  8
HCD_PILLARS
  0
POLYLINE
  5
2E9
  8
HCD_PILLARS
 66
     1
 10
0.0
 20
0.0
 30
0.0
 70
     1
  0
VERTEX
  5
2EA
  8
HCD_PILLARS
 10
-25.63741745539754
 20
3.535333522421013
 30
0.0
  0
VERTEX
  5
2EB
  8
HCD_PILLARS
 10
-25.23741745539972
 20
3.535333522421013
 30
0.0
  0
VERTEX
  5
2EC
  8
HCD_PILLARS
 10
-25.23741745539972
 20
3.135333522420922
 30
0.0
  0
VERTEX
  5
2ED
  8
HCD_PILLARS
 10
-25.63741745539754
 20
3.135333522420922
 30
0.0
  0
SEQEND
  5
2EE
  8
HCD_PILLARS
  0
POLYLINE
  5
2EF
  8
HCD_PILLARS
 66
     1
 10
0.0
 20
0.0
 30
0.0
 70
     1
  0
VERTEX
  5
2F0
  8
HCD_PILLARS
 10
-23.9141479407417
 20
3.535333522421013
 30
0.0
  0
VERTEX
  5
2F1
  8
HCD_PILLARS
 10
-23.51414794074388
 20
3.535333522421013
 30
0.0
  0
VERTEX
  5
2F2
  8
HCD_PILLARS
 10
-23.51414794074388
 20
3.135333522420922
 30
0.0
  0
VERTEX
  5
2F3
  8
HCD_PILLARS
 10
-23.9141479407417
 20
3.135333522420922
 30
0.0
  0
SEQEND
  5
2F4
  8
HCD_PILLARS
  0
POLYLINE
  5
2F5
  8
HCD_PILLARS
 66
     1
 10
0.0
 20
0.0
 30
0.0
 70
     1
  0
VERTEX
  5
2F6
  8
HCD_PILLARS
 10
-25.63741745539754
 20
-2.464666477578987
 30
0.0
  0
VERTEX
  5
2F7
  8
HCD_PILLARS
 10
-25.23741745539972
 20
-2.464666477578987
 30
0.0
  0
VERTEX
  5
2F8
  8
HCD_PILLARS
 10
-25.23741745539972
 20
-2.864666477579078
 30
0.0
  0
VERTEX
  5
2F9
  8
HCD_PILLARS
 10
-25.63741745539754
 20
-2.864666477579078
 30
0.0
  0
SEQEND
  5
2FA
  8
HCD_PILLARS
  0
POLYLINE
  5
2FB
  8
HCD_PILLARS
 66
     1
 10
0.0
 20
0.0
 30
0.0
 70
     1
  0
VERTEX
  5
2FC
  8
HCD_PILLARS
 10
-34.63741745539754
 20
-8.464666477578987
 30
0.0
  0
VERTEX
  5
2FD
  8
HCD_PILLARS
 10
-34.23741745539972
 20
-8.464666477578987
 30
0.0
  0
VERTEX
  5
2FE
  8
HCD_PILLARS
 10
-34.23741745539972
 20
-8.864666477579078
 30
0.0
  0
VERTEX
  5
2FF
  8
HCD_PILLARS
 10
-34.63741745539754
 20
-8.864666477579078
 30
0.0
  0
SEQEND
  5
300
  8
HCD_PILLARS
  0
POLYLINE
  5
301
  8
HCD_PILLARS
 66
     1
 10
0.0
 20
0.0
 30
0.0
 70
     1
  0
VERTEX
  5
302
  8
HCD_PILLARS
 10
-34.63741745539754
 20
-2.464666477578987
 30
0.0
  0
VERTEX
  5
303
  8
HCD_PILLARS
 10
-34.23741745539972
 20
-2.464666477578987
 30
0.0
  0
VERTEX
  5
304
  8
HCD_PILLARS
 10
-34.23741745539972
 20
-2.864666477579078
 30
0.0
  0
VERTEX
  5
305
  8
HCD_PILLARS
 10
-34.63741745539754
 20
-2.864666477579078
 30
0.0
  0
SEQEND
  5
306
  8
HCD_PILLARS
  0
POLYLINE
  5
307
  8
HCD_PILLARS
 66
     1
 10
0.0
 20
0.0
 30
0.0
 70
     1
  0
VERTEX
  5
308
  8
HCD_PILLARS
 10
-43.63741745539754
 20
-2.464666477578987
 30
0.0
  0
VERTEX
  5
309
  8
HCD_PILLARS
 10
-43.23741745539972
 20
-2.464666477578987
 30
0.0
  0
VERTEX
  5
30A
  8
HCD_PILLARS
 10
-43.23741745539972
 20
-2.864666477579078
 30
0.0
  0
VERTEX
  5
30B
  8
HCD_PILLARS
 10
-43.63741745539754
 20
-2.864666477579078
 30
0.0
  0
SEQEND
  5
30C
  8
HCD_PILLARS
  0
POLYLINE
  5
30D
  8
HCD_PILLARS
 66
     1
 10
0.0
 20
0.0
 30
0.0
 70
     1
  0
VERTEX
  5
30E
  8
HCD_PILLARS
 10
-34.63741745539754
 20
9.535333522421006
 30
0.0
  0
VERTEX
  5
30F
  8
HCD_PILLARS
 10
-34.23741745539972
 20
9.535333522421006
 30
0.0
  0
VERTEX
  5
310
  8
HCD_PILLARS
 10
-34.23741745539972
 20
9.135333522420915
 30
0.0
  0
VERTEX
  5
311
  8
HCD_PILLARS
 10
-34.63741745539754
 20
9.135333522420915
 30
0.0
  0
SEQEND
  5
312
  8
HCD_PILLARS
  0
POLYLINE
  5
313
  8
HCD_PILLARS
 66
     1
 10
0.0
 20
0.0
 30
0.0
 70
     1
  0
VERTEX
  5
314
  8
HCD_PILLARS
 10
-34.63741745539754
 20
3.535333522421013
 30
0.0
  0
VERTEX
  5
315
  8
HCD_PILLARS
 10
-34.23741745539972
 20
3.535333522421013
 30
0.0
  0
VERTEX
  5
316
  8
HCD_PILLARS
 10
-34.23741745539972
 20
3.135333522420922
 30
0.0
  0
VERTEX
  5
317
  8
HCD_PILLARS
 10
-34.63741745539754
 20
3.135333522420922
 30
0.0
  0
SEQEND
  5
318
  8
HCD_PILLARS
  0
POLYLINE
  5
319
  8
HCD_PILLARS
 66
     1
 10
0.0
 20
0.0
 30
0.0
 70
     1
  0
VERTEX
  5
31A
  8
HCD_PILLARS
 10
-43.63741745539754
 20
3.535333522421013
 30
0.0
  0
VERTEX
  5
31B
  8
HCD_PILLARS
 10
-43.23741745539972
 20
3.535333522421013
 30
0.0
  0
VERTEX
  5
31C
  8
HCD_PILLARS
 10
-43.23741745539972
 20
3.135333522420922
 30
0.0
  0
VERTEX
  5
31D
  8
HCD_PILLARS
 10
-43.63741745539754
 20
3.135333522420922
 30
0.0
  0
SEQEND
  5
31E
  8
HCD_PILLARS
  0
POLYLINE
  5
31F
  8
HCD_PILLARS
 66
     1
 10
0.0
 20
0.0
 30
0.0
 70
     1
  0
VERTEX
  5
320
  8
HCD_PILLARS
 10
-43.63741745539754
 20
9.535333522421006
 30
0.0
  0
VERTEX
  5
321
  8
HCD_PILLARS
 10
-43.23741745539972
 20
9.535333522421006
 30
0.0
  0
VERTEX
  5
322
  8
HCD_PILLARS
 10
-43.23741745539972
 20
9.135333522420915
 30
0.0
  0
VERTEX
  5
323
  8
HCD_PILLARS
 10
-43.63741745539754
 20
9.135333522420915
 30
0.0
  0
SEQEND
  5
324
  8
HCD_PILLARS
  0
POLYLINE
  5
325
  8
HCD_PILLARS
 66
     1
 10
0.0
 20
0.0
 30
0.0
 70
     1
  0
VERTEX
  5
326
  8
HCD_PILLARS
 10
-34.63741745539754
 20
15.53533352242101
 30
0.0
  0
VERTEX
  5
327
  8
HCD_PILLARS
 10
-34.23741745539972
 20
15.53533352242101
 30
0.0
  0
VERTEX
  5
328
  8
HCD_PILLARS
 10
-34.23741745539972
 20
15.13533352242092
 30
0.0
  0
VERTEX
  5
329
  8
HCD_PILLARS
 10
-34.63741745539754
 20
15.13533352242092
 30
0.0
  0
SEQEND
  5
32A
  8
HCD_PILLARS
  0
POLYLINE
  5
32B
  8
HCD_PILLARS
 66
     1
 10
0.0
 20
0.0
 30
0.0
 70
     1
  0
VERTEX
  5
32C
  8
HCD_PILLARS
 10
-43.63741745539754
 20
15.53533352242101
 30
0.0
  0
VERTEX
  5
32D
  8
HCD_PILLARS
 10
-43.23741745539972
 20
15.53533352242101
 30
0.0
  0
VERTEX
  5
32E
  8
HCD_PILLARS
 10
-43.23741745539972
 20
15.13533352242092
 30
0.0
  0
VERTEX
  5
32F
  8
HCD_PILLARS
 10
-43.63741745539754
 20
15.13533352242092
 30
0.0
  0
SEQEND
  5
330
  8
HCD_PILLARS
  0
POLYLINE
  5
331
  8
HCD_PILLARS
 66
     1
 10
0.0
 20
0.0
 30
0.0
 70
     1
  0
VERTEX
  5
332
  8
HCD_PILLARS
 10
-43.63741745539754
 20
21.53533352242101
 30
0.0
  0
VERTEX
  5
333
  8
HCD_PILLARS
 10
-43.23741745539972
 20
21.53533352242101
 30
0.0
  0
VERTEX
  5
334
  8
HCD_PILLARS
 10
-43.23741745539972
 20
21.13533352242092
 30
0.0
  0
VERTEX
  5
335
  8
HCD_PILLARS
 10
-43.63741745539754
 20
21.13533352242092
 30
0.0
  0
SEQEND
  5
336
  8
HCD_PILLARS
  0
POLYLINE
  5
337
  8
HCD_PILLARS
 66
     1
 10
0.0
 20
0.0
 30
0.0
 70
     1
  0
VERTEX
  5
338
  8
HCD_PILLARS
 10
-43.63741745539754
 20
27.53533352242101
 30
0.0
  0
VERTEX
  5
339
  8
HCD_PILLARS
 10
-43.23741745539972
 20
27.53533352242101
 30
0.0
  0
VERTEX
  5
33A
  8
HCD_PILLARS
 10
-43.23741745539972
 20
27.13533352242092
 30
0.0
  0
VERTEX
  5
33B
  8
HCD_PILLARS
 10
-43.63741745539754
 20
27.13533352242092
 30
0.0
  0
SEQEND
  5
33C
  8
HCD_PILLARS
  0
POLYLINE
  5
33D
  8
HCD_PILLARS
 66
     1
 10
0.0
 20
0.0
 30
0.0
 70
     1
  0
VERTEX
  5
33E
  8
HCD_PILLARS
 10
-25.63741745539754
 20
27.53533352242101
 30
0.0
  0
VERTEX
  5
33F
  8
HCD_PILLARS
 10
-25.23741745539972
 20
27.53533352242101
 30
0.0
  0
VERTEX
  5
340
  8
HCD_PILLARS
 10
-25.23741745539972
 20
27.13533352242092
 30
0.0
  0
VERTEX
  5
341
  8
HCD_PILLARS
 10
-25.63741745539754
 20
27.13533352242092
 30
0.0
  0
SEQEND
  5
342
  8
HCD_PILLARS
  0
POLYLINE
  5
343
  8
HCD_PILLARS
 66
     1
 10
0.0
 20
0.0
 30
0.0
 70
     1
  0
VERTEX
  5
344
  8
HCD_PILLARS
 10
-13.63741745539754
 20
27.53533352242101
 30
0.0
  0
VERTEX
  5
345
  8
HCD_PILLARS
 10
-13.23741745539972
 20
27.53533352242101
 30
0.0
  0
VERTEX
  5
346
  8
HCD_PILLARS
 10
-13.23741745539972
 20
27.13533352242092
 30
0.0
  0
VERTEX
  5
347
  8
HCD_PILLARS
 10
-13.63741745539754
 20
27.13533352242092
 30
0.0
  0
SEQEND
  5
348
  8
HCD_PILLARS
  0
POLYLINE
  5
349
  8
HCD_PILLARS
 66
     1
 10
0.0
 20
0.0
 30
0.0
 70
     1
  0
VERTEX
  5
34A
  8
HCD_PILLARS
 10
-1.637417455397539
 20
27.53533352242101
 30
0.0
  0
VERTEX
  5
34B
  8
HCD_PILLARS
 10
-1.237417455399722
 20
27.53533352242101
 30
0.0
  0
VERTEX
  5
34C
  8
HCD_PILLARS
 10
-1.237417455399722
 20
27.13533352242092
 30
0.0
  0
VERTEX
  5
34D
  8
HCD_PILLARS
 10
-1.637417455397539
 20
27.13533352242092
 30
0.0
  0
SEQEND
  5
34E
  8
HCD_PILLARS
  0
POLYLINE
  5
34F
  8
HCD_PILLARS
 66
     1
 10
0.0
 20
0.0
 30
0.0
 70
     1
  0
VERTEX
  5
350
  8
HCD_PILLARS
 10
22.39455472781356
 20
27.53533352242101
 30
0.0
  0
VERTEX
  5
351
  8
HCD_PILLARS
 10
22.79455472781139
 20
27.53533352242101
 30
0.0
  0
VERTEX
  5
352
  8
HCD_PILLARS
 10
22.79455472781139
 20
27.13533352242092
 30
0.0
  0
VERTEX
  5
353
  8
HCD_PILLARS
 10
22.39455472781356
 20
27.13533352242092
 30
0.0
  0
SEQEND
  5
354
  8
HCD_PILLARS
  0
POLYLINE
  5
355
  8
HCD_PILLARS
 66
     1
 10
0.0
 20
0.0
 30
0.0
 70
     1
  0
VERTEX
  5
356
  8
HCD_PILLARS
 10
10.36258254460246
 20
27.53533352242101
 30
0.0
  0
VERTEX
  5
357
  8
HCD_PILLARS
 10
10.76258254460028
 20
27.53533352242101
 30
0.0
  0
VERTEX
  5
358
  8
HCD_PILLARS
 10
10.76258254460028
 20
27.13533352242092
 30
0.0
  0
VERTEX
  5
359
  8
HCD_PILLARS
 10
10.36258254460246
 20
27.13533352242092
 30
0.0
  0
SEQEND
  5
35A
  8
HCD_PILLARS
  0
LINE
  5
35B
  8
HCD_DRAWINGS
 10
20.89657866387915
 20
31.8337756923658
 30
0.0
 11
19.49301762693723
 21
31.8337756923658
 31
0.0
  0
LINE
  5
35C
  8
HCD_DRAWINGS
 10
20.89657866387915
 20
31.53529942448057
 30
0.0
 11
19.49301762693723
 21
31.53529942448057
 31
0.0
  0
LINE
  5
35D
  8
HCD_DRAWINGS
 10
20.89657866387915
 20
31.23529942448039
 30
0.0
 11
19.49301762693723
 21
31.23529942448039
 31
0.0
  0
LINE
  5
35E
  8
HCD_DRAWINGS
 10
20.89657866387915
 20
31.23529942448039
 30
0.0
 11
19.49301762693723
 21
31.23529942448039
 31
0.0
  0
LINE
  5
35F
  8
HCD_DRAWINGS
 10
20.89657866387915
 20
30.93529942448089
 30
0.0
 11
19.49301762693723
 21
30.93529942448089
 31
0.0
  0
LINE
  5
360
  8
HCD_DRAWINGS
 10
20.89657866387915
 20
30.63529942448071
 30
0.0
 11
19.49301762693723
 21
30.63529942448071
 31
0.0
  0
LINE
  5
361
  8
HCD_DRAWINGS
 10
20.89657866387915
 20
30.33529942448098
 30
0.0
 11
19.49301762693723
 21
30.33529942448098
 31
0.0
  0
LINE
  5
362
  8
HCD_DRAWINGS
 10
20.89657866387915
 20
30.0352994244808
 30
0.0
 11
19.49301762693723
 21
30.0352994244808
 31
0.0
  0
LINE
  5
363
  8
HCD_DRAWINGS
 10
20.89657866387915
 20
29.73529942448039
 30
0.0
 11
19.49301762693723
 21
29.73529942448039
 31
0.0
  0
LINE
  5
364
  8
HCD_DRAWINGS
 10
20.89657866387915
 20
29.43529942448021
 30
0.0
 11
19.49301762693723
 21
29.43529942448021
 31
0.0
  0
LINE
  5
365
  8
HCD_DRAWINGS
 10
20.89657866387915
 20
29.13529942448048
 30
0.0
 11
19.49301762693723
 21
29.13529942448048
 31
0.0
  0
LINE
  5
366
  8
HCD_DRAWINGS
 10
20.89657866387915
 20
28.8352994244803
 30
0.0
 11
19.49301762693723
 21
28.8352994244803
 31
0.0
  0
LINE
  5
367
  8
HCD_DRAWINGS
 10
21.09657866387626
 20
31.8337756923658
 30
0.0
 11
22.54072729353813
 21
31.8337756923658
 31
0.0
  0
LINE
  5
368
  8
HCD_DRAWINGS
 10
21.09657866387626
 20
31.53529942448057
 30
0.0
 11
22.54072729353813
 21
31.53529942448057
 31
0.0
  0
LINE
  5
369
  8
HCD_DRAWINGS
 10
21.09657866387626
 20
31.23529942448039
 30
0.0
 11
22.54072729353813
 21
31.23529942448039
 31
0.0
  0
LINE
  5
36A
  8
HCD_DRAWINGS
 10
21.09657866387626
 20
31.23529942448039
 30
0.0
 11
22.54072729353813
 21
31.23529942448039
 31
0.0
  0
LINE
  5
36B
  8
HCD_DRAWINGS
 10
21.09657866387626
 20
30.93529942447998
 30
0.0
 11
22.54072729353813
 21
30.93529942447998
 31
0.0
  0
LINE
  5
36C
  8
HCD_DRAWINGS
 10
21.09657866387626
 20
30.63529942448048
 30
0.0
 11
22.54072729353813
 21
30.63529942448048
 31
0.0
  0
LINE
  5
36D
  8
HCD_DRAWINGS
 10
21.09657866387626
 20
30.33453755842305
 30
0.0
 11
22.54072729353813
 21
30.33453755842305
 31
0.0
  0
LINE
  5
36E
  8
HCD_DRAWINGS
 10
21.09657866387626
 20
30.03529942448057
 30
0.0
 11
22.54072729353813
 21
30.03529942448057
 31
0.0
  0
LINE
  5
36F
  8
HCD_DRAWINGS
 10
21.09657866387626
 20
30.03529942448057
 30
0.0
 11
22.54072729353813
 21
30.03529942448057
 31
0.0
  0
LINE
  5
370
  8
HCD_DRAWINGS
 10
21.09657866387626
 20
29.73529942448039
 30
0.0
 11
22.54072729353813
 21
29.73529942448039
 31
0.0
  0
LINE
  5
371
  8
HCD_DRAWINGS
 10
21.09657866387626
 20
29.43529942448021
 30
0.0
 11
22.54072729353813
 21
29.43529942448021
 31
0.0
  0
LINE
  5
372
  8
HCD_DRAWINGS
 10
21.09657866387626
 20
29.13529942448048
 30
0.0
 11
22.54072729353813
 21
29.13529942448048
 31
0.0
  0
LINE
  5
373
  8
HCD_DRAWINGS
 10
21.09657866387626
 20
28.8352994244803
 30
0.0
 11
22.54072729353813
 21
28.8352994244803
 31
0.0
  0
POLYLINE
  5
374
  8
HCD_DRAWINGS
 66
     1
 10
0.0
 20
0.0
 30
0.0
 70
     1
  0
VERTEX
  5
375
  8
HCD_DRAWINGS
 10
20.89657866387915
 20
31.8337756923658
 30
0.0
  0
VERTEX
  5
376
  8
HCD_DRAWINGS
 10
21.09657866387626
 20
31.8337756923658
 30
0.0
  0
VERTEX
  5
377
  8
HCD_DRAWINGS
 10
21.09657866387626
 20
28.8352994244803
 30
0.0
  0
VERTEX
  5
378
  8
HCD_DRAWINGS
 10
20.89657866387915
 20
28.8352994244803
 30
0.0
  0
SEQEND
  5
379
  8
HCD_DRAWINGS
  0
POLYLINE
  5
37A
  8
HCD_DRAWINGS
 66
     1
 10
0.0
 20
0.0
 30
0.0
 70
     1
  0
VERTEX
  5
37B
  8
HCD_DRAWINGS
 10
21.14657866387917
 20
28.78529942448057
 30
0.0
  0
VERTEX
  5
37C
  8
HCD_DRAWINGS
 10
20.84657866387626
 20
28.78529942448057
 30
0.0
  0
VERTEX
  5
37D
  8
HCD_DRAWINGS
 10
20.84657866387626
 20
31.88529942448048
 30
0.0
  0
VERTEX
  5
37E
  8
HCD_DRAWINGS
 10
21.14657866387917
 20
31.88529942448048
 30
0.0
  0
SEQEND
  5
37F
  8
HCD_DRAWINGS
  0
POLYLINE
  5
380
  8
HCD_DRAWINGS
 66
     1
 10
0.0
 20
0.0
 30
0.0
 70
     1
  0
VERTEX
  5
381
  8
HCD_DRAWINGS
 10
20.79657866387699
 20
31.93529942448021
 30
0.0
  0
VERTEX
  5
382
  8
HCD_DRAWINGS
 10
21.19657866387846
 20
31.93529942448021
 30
0.0
  0
VERTEX
  5
383
  8
HCD_DRAWINGS
 10
21.19657866387846
 20
28.73529942448039
 30
0.0
  0
VERTEX
  5
384
  8
HCD_DRAWINGS
 10
20.79657866387699
 20
28.73529942448039
 30
0.0
  0
SEQEND
  5
385
  8
HCD_DRAWINGS
  0
LINE
  5
386
  8
HCD_DRAWINGS
 10
-37.50424711554477
 20
25.48533352242082
 30
0.0
 11
-36.07950101856567
 21
25.48533352242082
 31
0.0
  0
LINE
  5
387
  8
HCD_DRAWINGS
 10
-37.50424711554477
 20
25.1853335224211
 30
0.0
 11
-36.07950101856567
 21
25.1853335224211
 31
0.0
  0
LINE
  5
388
  8
HCD_DRAWINGS
 10
-37.50424711554477
 20
24.88533352242092
 30
0.0
 11
-36.07950101856567
 21
24.88533352242092
 31
0.0
  0
LINE
  5
389
  8
HCD_DRAWINGS
 10
-37.50424711554477
 20
24.58533352242074
 30
0.0
 11
-36.07950101856567
 21
24.58533352242074
 31
0.0
  0
LINE
  5
38A
  8
HCD_DRAWINGS
 10
-37.50424711554477
 20
24.28533352242101
 30
0.0
 11
-36.07950101856567
 21
24.28533352242101
 31
0.0
  0
LINE
  5
38B
  8
HCD_DRAWINGS
 10
-37.50424711554477
 20
23.98533352242083
 30
0.0
 11
-36.07950101856567
 21
23.98533352242083
 31
0.0
  0
LINE
  5
38C
  8
HCD_DRAWINGS
 10
-37.50424711554477
 20
23.6853335224211
 30
0.0
 11
-36.07950101856567
 21
23.6853335224211
 31
0.0
  0
LINE
  5
38D
  8
HCD_DRAWINGS
 10
-37.50424711554477
 20
23.38533352242092
 30
0.0
 11
-36.07950101856567
 21
23.38533352242092
 31
0.0
  0
LINE
  5
38E
  8
HCD_DRAWINGS
 10
-37.50424711554477
 20
23.08533352242073
 30
0.0
 11
-36.07950101856567
 21
23.08533352242073
 31
0.0
  0
LINE
  5
38F
  8
HCD_DRAWINGS
 10
-37.50424711554477
 20
22.78533352242101
 30
0.0
 11
-36.07950101856567
 21
22.78533352242101
 31
0.0
  0
LINE
  5
390
  8
HCD_DRAWINGS
 10
-34.53438337618535
 20
25.48533352242082
 30
0.0
 11
-35.97950101857076
 21
25.48533352242082
 31
0.0
  0
LINE
  5
391
  8
HCD_DRAWINGS
 10
-34.53438337618535
 20
25.1853335224211
 30
0.0
 11
-35.97950101857076
 21
25.1853335224211
 31
0.0
  0
LINE
  5
392
  8
HCD_DRAWINGS
 10
-34.53438337618535
 20
24.88533352242092
 30
0.0
 11
-35.97950101857076
 21
24.88533352242092
 31
0.0
  0
LINE
  5
393
  8
HCD_DRAWINGS
 10
-34.53438337618535
 20
24.58533352242074
 30
0.0
 11
-35.97950101857076
 21
24.58533352242074
 31
0.0
  0
LINE
  5
394
  8
HCD_DRAWINGS
 10
-34.53438337618535
 20
24.28533352242101
 30
0.0
 11
-35.97950101857076
 21
24.28533352242101
 31
0.0
  0
LINE
  5
395
  8
HCD_DRAWINGS
 10
-34.53438337618535
 20
23.98533352242083
 30
0.0
 11
-35.97950101857076
 21
23.98533352242083
 31
0.0
  0
LINE
  5
396
  8
HCD_DRAWINGS
 10
-34.53438337618535
 20
23.6853335224211
 30
0.0
 11
-35.97950101857076
 21
23.6853335224211
 31
0.0
  0
LINE
  5
397
  8
HCD_DRAWINGS
 10
-34.53438337618535
 20
23.38533352242092
 30
0.0
 11
-35.97950101857076
 21
23.38533352242092
 31
0.0
  0
LINE
  5
398
  8
HCD_DRAWINGS
 10
-34.53438337618535
 20
23.08533352242073
 30
0.0
 11
-35.97950101857076
 21
23.08533352242073
 31
0.0
  0
LINE
  5
399
  8
HCD_DRAWINGS
 10
-34.53438337618535
 20
22.78533352242101
 30
0.0
 11
-35.97950101857076
 21
22.78533352242101
 31
0.0
  0
POLYLINE
  5
39A
  8
HCD_DRAWINGS
 66
     1
 10
0.0
 20
0.0
 30
0.0
 70
     1
  0
VERTEX
  5
39B
  8
HCD_DRAWINGS
 10
-36.0795010185693
 20
25.48533352242082
 30
0.0
  0
VERTEX
  5
39C
  8
HCD_DRAWINGS
 10
-35.97950101857076
 20
25.48533352242082
 30
0.0
  0
VERTEX
  5
39D
  8
HCD_DRAWINGS
 10
-35.97950101857076
 20
22.78533352242101
 30
0.0
  0
VERTEX
  5
39E
  8
HCD_DRAWINGS
 10
-36.0795010185693
 20
22.78533352242101
 30
0.0
  0
SEQEND
  5
39F
  8
HCD_DRAWINGS
  0
POLYLINE
  5
3A0
  8
HCD_DRAWINGS
 66
     1
 10
0.0
 20
0.0
 30
0.0
 70
     1
  0
VERTEX
  5
3A1
  8
HCD_DRAWINGS
 10
-36.12950101856858
 20
22.73533352242083
 30
0.0
  0
VERTEX
  5
3A2
  8
HCD_DRAWINGS
 10
-35.92950101856785
 20
22.73533352242083
 30
0.0
  0
VERTEX
  5
3A3
  8
HCD_DRAWINGS
 10
-35.92950101856785
 20
25.53533352242101
 30
0.0
  0
VERTEX
  5
3A4
  8
HCD_DRAWINGS
 10
-36.12950101856858
 20
25.53533352242101
 30
0.0
  0
SEQEND
  5
3A5
  8
HCD_DRAWINGS
  0
POLYLINE
  5
3A6
  8
HCD_DRAWINGS
 66
     1
 10
0.0
 20
0.0
 30
0.0
 70
     1
  0
VERTEX
  5
3A7
  8
HCD_DRAWINGS
 10
-35.87950101856858
 20
25.58533352242073
 30
0.0
  0
VERTEX
  5
3A8
  8
HCD_DRAWINGS
 10
-36.17950101856785
 20
25.58533352242073
 30
0.0
  0
VERTEX
  5
3A9
  8
HCD_DRAWINGS
 10
-36.17950101856785
 20
22.6853335224211
 30
0.0
  0
VERTEX
  5
3AA
  8
HCD_DRAWINGS
 10
-35.87950101856858
 20
22.6853335224211
 30
0.0
  0
SEQEND
  5
3AB
  8
HCD_DRAWINGS
  0
POLYLINE
  5
3AC
  8
HCD_DRAWINGS
 66
     1
 10
0.0
 20
0.0
 30
0.0
 70
     1
  0
VERTEX
  5
3AD
  8
HCD_DRAWINGS
 10
-15.74315871053567
 20
16.38434021745359
 30
0.0
  0
VERTEX
  5
3AE
  8
HCD_DRAWINGS
 10
-14.1441621820495
 20
16.38434021745359
 30
0.0
  0
VERTEX
  5
3AF
  8
HCD_DRAWINGS
 10
-14.1441621820495
 20
16.5343402174537
 30
0.0
  0
VERTEX
  5
3B0
  8
HCD_DRAWINGS
 10
-15.74315871053567
 20
16.5343402174537
 30
0.0
  0
SEQEND
  5
3B1
  8
HCD_DRAWINGS
  0
LINE
  5
3B2
  8
HCD_DRAWINGS
 10
-13.90748923759383
 20
16.70447419566033
 30
0.0
 11
-15.92983165499389
 21
18.3744741956604
 31
0.0
  0
LINE
  5
3B3
  8
HCD_DRAWINGS
 10
-15.92983165499481
 20
16.70447419566033
 30
0.0
 11
-13.90748923759473
 21
18.3744741956604
 31
0.0
  0
POLYLINE
  5
3B4
  8
HCD_DRAWINGS
 66
     1
 10
0.0
 20
0.0
 30
0.0
 70
     1
  0
VERTEX
  5
3B5
  8
HCD_DRAWINGS
 10
-15.92983165499389
 20
16.70447419566033
 30
0.0
  0
VERTEX
  5
3B6
  8
HCD_DRAWINGS
 10
-13.90748923759473
 20
16.70447419566033
 30
0.0
  0
VERTEX
  5
3B7
  8
HCD_DRAWINGS
 10
-13.90748923759473
 20
18.3744741956604
 30
0.0
  0
VERTEX
  5
3B8
  8
HCD_DRAWINGS
 10
-15.92983165499389
 20
18.3744741956604
 30
0.0
  0
SEQEND
  5
3B9
  8
HCD_DRAWINGS
  0
LINE
  5
3BA
  8
HCD_DRAWINGS
 10
-13.90748923759473
 20
19.05446939482471
 30
0.0
 11
-15.92983165499481
 21
20.72446939482433
 31
0.0
  0
LINE
  5
3BB
  8
HCD_DRAWINGS
 10
-15.92983165499389
 20
19.05446939482471
 30
0.0
 11
-13.90748923759473
 21
20.72446939482433
 31
0.0
  0
POLYLINE
  5
3BC
  8
HCD_DRAWINGS
 66
     1
 10
0.0
 20
0.0
 30
0.0
 70
     1
  0
VERTEX
  5
3BD
  8
HCD_DRAWINGS
 10
-15.74315871053567
 20
18.77708223023701
 30
0.0
  0
VERTEX
  5
3BE
  8
HCD_DRAWINGS
 10
-14.1441621820495
 20
18.77708223023701
 30
0.0
  0
VERTEX
  5
3BF
  8
HCD_DRAWINGS
 10
-14.1441621820495
 20
18.92708223023664
 30
0.0
  0
VERTEX
  5
3C0
  8
HCD_DRAWINGS
 10
-15.74315871053567
 20
18.92708223023664
 30
0.0
  0
SEQEND
  5
3C1
  8
HCD_DRAWINGS
  0
POLYLINE
  5
3C2
  8
HCD_DRAWINGS
 66
     1
 10
0.0
 20
0.0
 30
0.0
 70
     1
  0
VERTEX
  5
3C3
  8
HCD_DRAWINGS
 10
-15.92983165499481
 20
20.72446939482433
 30
0.0
  0
VERTEX
  5
3C4
  8
HCD_DRAWINGS
 10
-13.90748923759473
 20
20.72446939482433
 30
0.0
  0
VERTEX
  5
3C5
  8
HCD_DRAWINGS
 10
-13.90748923759473
 20
19.05446939482471
 30
0.0
  0
VERTEX
  5
3C6
  8
HCD_DRAWINGS
 10
-15.92983165499481
 20
19.05446939482471
 30
0.0
  0
SEQEND
  5
3C7
  8
HCD_DRAWINGS
  0
LINE
  5
3C8
  8
HCD_DRAWINGS
 10
-13.9212175654793
 20
22.30445927399404
 30
0.0
 11
-16.94355998288028
 21
24.3744592739942
 31
0.0
  0
LINE
  5
3C9
  8
HCD_DRAWINGS
 10
-13.92121756548021
 20
24.3744592739942
 30
0.0
 11
-16.94355998288028
 21
22.30445927399404
 31
0.0
  0
POLYLINE
  5
3CA
  8
HCD_DRAWINGS
 66
     1
 10
0.0
 20
0.0
 30
0.0
 70
     1
  0
VERTEX
  5
3CB
  8
HCD_DRAWINGS
 10
-16.94355998288028
 20
22.30445927399404
 30
0.0
  0
VERTEX
  5
3CC
  8
HCD_DRAWINGS
 10
-13.92121756548021
 20
22.30445927399404
 30
0.0
  0
VERTEX
  5
3CD
  8
HCD_DRAWINGS
 10
-13.92121756548021
 20
24.3744592739942
 30
0.0
  0
VERTEX
  5
3CE
  8
HCD_DRAWINGS
 10
-16.94355998288028
 20
24.3744592739942
 30
0.0
  0
SEQEND
  5
3CF
  8
HCD_DRAWINGS
  0
POLYLINE
  5
3D0
  8
HCD_DRAWINGS
 66
     1
 10
0.0
 20
0.0
 30
0.0
 70
     1
  0
VERTEX
  5
3D1
  8
HCD_DRAWINGS
 10
-16.75688703842478
 20
24.74459325220112
 30
0.0
  0
VERTEX
  5
3D2
  8
HCD_DRAWINGS
 10
-14.15789050993861
 20
24.74459325220112
 30
0.0
  0
VERTEX
  5
3D3
  8
HCD_DRAWINGS
 10
-14.15789050993861
 20
24.59459325220104
 30
0.0
  0
VERTEX
  5
3D4
  8
HCD_DRAWINGS
 10
-16.75688703842478
 20
24.59459325220104
 30
0.0
  0
SEQEND
  5
3D5
  8
HCD_DRAWINGS
  0
LINE
  5
3D6
  8
HCD_DOORS
 10
-37.50424711554477
 20
27.03533380122025
 30
0.0
 11
-37.50424711554477
 21
26.03533380122025
 31
0.0
  0
LINE
  5
3D7
  8
HCD_DOORS
 10
20.46258254499389
 20
27.21727246228278
 30
0.0
 11
21.46258254499391
 21
27.21727246228278
 31
0.0
  0
LINE
  5
3D8
  8
HCD_DOORS
 10
34.51398184255596
 20
-22.71466647757899
 30
0.0
 11
34.51398184255596
 21
-24.71466647757899
 31
0.0
  0
LINE
  5
3D9
  8
HCD_BUILDING_ROOMS
 10
-27.39445568947666
 20
18.07789555957601
 30
0.0
 11
-25.30957102572209
 21
18.07789555957601
 31
0.0
  0
LINE
  5
3DA
  8
HCD_BUILDING_ROOMS
 10
-27.39445568947666
 20
20.0317908804554
 30
0.0
 11
-25.30957102572209
 21
20.0317908804554
 31
0.0
  0
POLYLINE
  5
3DB
  8
HCD_BUILDING_ROOMS
 66
     1
 10
0.0
 20
0.0
 30
0.0
  0
VERTEX
  5
3DC
  8
HCD_BUILDING_ROOMS
 10
-29.23555716656573
 20
20.0317908804554
 30
0.0
  0
VERTEX
  5
3DD
  8
HCD_BUILDING_ROOMS
 10
-27.39445568947666
 20
20.0317908804554
 30
0.0
  0
VERTEX
  5
3DE
  8
HCD_BUILDING_ROOMS
 10
-27.39445568947666
 20
18.07789555957601
 30
0.0
  0
VERTEX
  5
3DF
  8
HCD_BUILDING_ROOMS
 10
-29.23555716656573
 20
18.07789555957601
 30
0.0
  0
SEQEND
  5
3E0
  8
HCD_BUILDING_ROOMS
  0
LINE
  5
3E1
  8
HCD_BUILDING_ROOMS
 10
-26.74851642111387
 20
12.99909430166274
 30
0.0
 11
-25.30957102572209
 21
12.99909430166274
 31
0.0
  0
POLYLINE
  5
3E2
  8
HCD_BUILDING_ROOMS
 66
     1
 10
0.0
 20
0.0
 30
0.0
  0
VERTEX
  5
3E3
  8
HCD_BUILDING_ROOMS
 10
-29.70177096698897
 20
12.99909430166274
 30
0.0
  0
VERTEX
  5
3E4
  8
HCD_BUILDING_ROOMS
 10
-26.74851642111387
 20
12.99909430166274
 30
0.0
  0
VERTEX
  5
3E5
  8
HCD_BUILDING_ROOMS
 10
-26.74851642111387
 20
9.73982134572946
 30
0.0
  0
SEQEND
  5
3E6
  8
HCD_BUILDING_ROOMS
  0
POLYLINE
  5
3E7
  8
HCD_BUILDING_ROOMS
 66
     1
 10
0.0
 20
0.0
 30
0.0
  0
VERTEX
  5
3E8
  8
HCD_BUILDING_ROOMS
 10
-29.70177096698897
 20
15.60836289135153
 30
0.0
  0
VERTEX
  5
3E9
  8
HCD_BUILDING_ROOMS
 10
-29.70177096698897
 20
12.99909430166274
 30
0.0
  0
VERTEX
  5
3EA
  8
HCD_BUILDING_ROOMS
 10
-31.97317208599632
 20
12.99909430166274
 30
0.0
  0
SEQEND
  5
3EB
  8
HCD_BUILDING_ROOMS
  0
POLYLINE
  5
3EC
  8
HCD_BUILDING_ROOMS
 66
     1
 10
0.0
 20
0.0
 30
0.0
  0
VERTEX
  5
3ED
  8
HCD_BUILDING_ROOMS
 10
-31.97317208599632
 20
22.0092172826998
 30
0.0
  0
VERTEX
  5
3EE
  8
HCD_BUILDING_ROOMS
 10
-29.23555716656573
 20
22.0092172826998
 30
0.0
  0
VERTEX
  5
3EF
  8
HCD_BUILDING_ROOMS
 10
-29.23555716656573
 20
15.60836289135153
 30
0.0
  0
VERTEX
  5
3F0
  8
HCD_BUILDING_ROOMS
 10
-31.97317208599632
 20
15.60836289135153
 30
0.0
  0
SEQEND
  5
3F1
  8
HCD_BUILDING_ROOMS
  0
POLYLINE
  5
3F2
  8
HCD_BUILDING_ROOMS
 66
     1
 10
0.0
 20
0.0
 30
0.0
  0
VERTEX
  5
3F3
  8
HCD_BUILDING_ROOMS
 10
-13.6256405251497
 20
21.92075979778377
 30
0.0
  0
VERTEX
  5
3F4
  8
HCD_BUILDING_ROOMS
 10
-13.6256405251497
 20
15.60492773641857
 30
0.0
  0
VERTEX
  5
3F5
  8
HCD_BUILDING_ROOMS
 10
-16.33244557480519
 20
15.60492773641857
 30
0.0
  0
VERTEX
  5
3F6
  8
HCD_BUILDING_ROOMS
 10
-16.33244557480519
 20
21.92075979778377
 30
0.0
  0
SEQEND
  5
3F7
  8
HCD_BUILDING_ROOMS
  0
POLYLINE
  5
3F8
  8
HCD_BUILDING_ROOMS
 66
     1
 10
0.0
 20
0.0
 30
0.0
 70
     1
  0
VERTEX
  5
3F9
  8
HCD_BUILDING_ROOMS
 10
-17.2563365657861
 20
25.09776274843892
 30
0.0
  0
VERTEX
  5
3FA
  8
HCD_BUILDING_ROOMS
 10
-13.6256405251497
 20
25.09776274843892
 30
0.0
  0
VERTEX
  5
3FB
  8
HCD_BUILDING_ROOMS
 10
-13.6256405251497
 20
21.92075979778377
 30
0.0
  0
VERTEX
  5
3FC
  8
HCD_BUILDING_ROOMS
 10
-17.2563365657861
 20
21.92075979778377
 30
0.0
  0
SEQEND
  5
3FD
  8
HCD_BUILDING_ROOMS
  0
POLYLINE
  5
3FE
  8
HCD_BUILDING_ROOMS
 66
     1
 10
0.0
 20
0.0
 30
0.0
 70
     1
  0
VERTEX
  5
3FF
  8
HCD_BUILDING_ROOMS
 10
-31.97317208599632
 20
24.83887571130794
 30
0.0
  0
VERTEX
  5
400
  8
HCD_BUILDING_ROOMS
 10
-25.30957102572209
 20
24.83887571130794
 30
0.0
  0
VERTEX
  5
401
  8
HCD_BUILDING_ROOMS
 10
-25.30957102572209
 20
9.73982134572946
 30
0.0
  0
VERTEX
  5
402
  8
HCD_BUILDING_ROOMS
 10
-31.97317208599632
 20
9.73982134572946
 30
0.0
  0
SEQEND
  5
403
  8
HCD_BUILDING_ROOMS
  0
POLYLINE
  5
404
  8
HCD_BUILDING_ROOMS
 66
     1
 10
0.0
 20
0.0
 30
0.0
  0
VERTEX
  5
405
  8
HCD_BUILDING_ROOMS
 10
35.55475588958961
 20
-20.86901144111522
 30
0.0
  0
VERTEX
  5
406
  8
HCD_BUILDING_ROOMS
 10
34.51398184255596
 20
-20.86901144111522
 30
0.0
  0
VERTEX
  5
407
  8
HCD_BUILDING_ROOMS
 10
34.51398184255596
 20
-26.45254972961862
 30
0.0
  0
VERTEX
  5
408
  8
HCD_BUILDING_ROOMS
 10
35.36608870950386
 20
-26.45254972961862
 30
0.0
  0
SEQEND
  5
409
  8
HCD_BUILDING_ROOMS
  0
POLYLINE
  5
40A
  8
HCD_BUILDING_ROOMS
 66
     1
 10
0.0
 20
0.0
 30
0.0
  0
VERTEX
  5
40B
  8
HCD_BUILDING_ROOMS
 10
-37.50424711554477
 20
27.62316932082234
 30
0.0
  0
VERTEX
  5
40C
  8
HCD_BUILDING_ROOMS
 10
-37.50424711554477
 20
21.24094658630104
 30
0.0
  0
VERTEX
  5
40D
  8
HCD_BUILDING_ROOMS
 10
-34.53438337618535
 20
21.24094658630104
 30
0.0
  0
VERTEX
  5
40E
  8
HCD_BUILDING_ROOMS
 10
-34.53438337618535
 20
27.62155314696037
 30
0.0
  0
SEQEND
  5
40F
  8
HCD_BUILDING_ROOMS
  0
POLYLINE
  5
410
  8
HCD_BUILDING_ROOMS
 66
     1
 10
0.0
 20
0.0
 30
0.0
  0
VERTEX
  5
411
  8
HCD_BUILDING_ROOMS
 10
19.49301762693723
 20
33.76010483362182
 30
0.0
  0
VERTEX
  5
412
  8
HCD_BUILDING_ROOMS
 10
19.49301762693723
 20
27.21727246228278
 30
0.0
  0
VERTEX
  5
413
  8
HCD_BUILDING_ROOMS
 10
22.54072729353813
 20
27.21727246228278
 30
0.0
  0
VERTEX
  5
414
  8
HCD_BUILDING_ROOMS
 10
22.54072729353813
 20
33.75892101342804
 30
0.0
  0
SEQEND
  5
415
  8
HCD_BUILDING_ROOMS
  0
POLYLINE
  5
417
  8
HCD_BUILDING_OUTLINE
 66
     1
 10
0.0
 20
0.0
 30
0.0
 70
     1
  0
VERTEX
  5
418
  8
HCD_BUILDING_OUTLINE
 10
-15.03229558607016
 20
-33.87411856952355
 30
0.0
  0
VERTEX
  5
419
  8
HCD_BUILDING_OUTLINE
 10
-12.24592108310752
 20
-33.87411856952355
 30
0.0
  0
VERTEX
  5
41A
  8
HCD_BUILDING_OUTLINE
 10
-12.24592108310752
 20
-32.87421162788002
 30
0.0
  0
VERTEX
  5
41B
  8
HCD_BUILDING_OUTLINE
 10
-2.849846219610292
 20
-32.87421162788002
 30
0.0
  0
VERTEX
  5
41C
  8
HCD_BUILDING_OUTLINE
 10
-2.849846219610292
 20
-33.82790206913756
 30
0.0
  0
VERTEX
  5
41D
  8
HCD_BUILDING_OUTLINE
 10
-0.145884251411168
 20
-33.82790206913756
 30
0.0
  0
VERTEX
  5
41E
  8
HCD_BUILDING_OUTLINE
 10
-0.145884251411168
 20
-32.82245167540628
 30
0.0
  0
VERTEX
  5
41F
  8
HCD_BUILDING_OUTLINE
 10
9.335733482650554
 20
-32.82245167540628
 30
0.0
  0
VERTEX
  5
420
  8
HCD_BUILDING_OUTLINE
 10
9.335733482650554
 20
-33.84594386895611
 30
0.0
  0
VERTEX
  5
421
  8
HCD_BUILDING_OUTLINE
 10
12.03828864111257
 20
-33.84594386895611
 30
0.0
  0
VERTEX
  5
422
  8
HCD_BUILDING_OUTLINE
 10
12.03828864111257
 20
-32.8994821855245
 30
0.0
  0
VERTEX
  5
423
  8
HCD_BUILDING_OUTLINE
 10
21.50523430713839
 20
-32.8994821855245
 30
0.0
  0
VERTEX
  5
424
  8
HCD_BUILDING_OUTLINE
 10
21.50523430713839
 20
-33.85443058713605
 30
0.0
  0
VERTEX
  5
425
  8
HCD_BUILDING_OUTLINE
 10
24.23266274559957
 20
-33.85443058713605
 30
0.0
  0
VERTEX
  5
426
  8
HCD_BUILDING_OUTLINE
 10
24.23266274559957
 20
-32.88862099193881
 30
0.0
  0
VERTEX
  5
427
  8
HCD_BUILDING_OUTLINE
 10
32.63620756087496
 20
-32.88862099193881
 30
0.0
  0
VERTEX
  5
428
  8
HCD_BUILDING_OUTLINE
 10
32.63620756087496
 20
-33.82894334732561
 30
0.0
  0
VERTEX
  5
429
  8
HCD_BUILDING_OUTLINE
 10
35.36608870950386
 20
-33.82894334732561
 30
0.0
  0
VERTEX
  5
42A
  8
HCD_BUILDING_OUTLINE
 10
35.36608870950386
 20
-26.45254972961862
 30
0.0
  0
VERTEX
  5
42B
  8
HCD_BUILDING_OUTLINE
 10
43.66038848808149
 20
-26.45254972961862
 30
0.0
  0
VERTEX
  5
42C
  8
HCD_BUILDING_OUTLINE
 10
43.66038848808149
 20
-20.86911376324958
 30
0.0
  0
VERTEX
  5
42D
  8
HCD_BUILDING_OUTLINE
 10
35.55475588958961
 20
-20.86911376324981
 30
0.0
  0
VERTEX
  5
42E
  8
HCD_BUILDING_OUTLINE
 10
35.55475588958961
 20
33.75892101342804
 30
0.0
  0
VERTEX
  5
42F
  8
HCD_BUILDING_OUTLINE
 10
-24.68055276179528
 20
33.75892101342804
 30
0.0
  0
VERTEX
  5
430
  8
HCD_BUILDING_OUTLINE
 10
-24.68055276179528
 20
33.14574936193429
 30
0.0
  0
VERTEX
  5
431
  8
HCD_BUILDING_OUTLINE
 10
-25.82163673059857
 20
33.14574936193429
 30
0.0
  0
VERTEX
  5
432
  8
HCD_BUILDING_OUTLINE
 10
-25.82163673059857
 20
27.62155314696037
 30
0.0
  0
VERTEX
  5
433
  8
HCD_BUILDING_OUTLINE
 10
-44.12047420142061
 20
27.62155314696037
 30
0.0
  0
VERTEX
  5
434
  8
HCD_BUILDING_OUTLINE
 10
-44.12047420142061
 20
-9.038764854213067
 30
0.0
  0
VERTEX
  5
435
  8
HCD_BUILDING_OUTLINE
 10
-26.22396052686052
 20
-9.038764854213067
 30
0.0
  0
VERTEX
  5
436
  8
HCD_BUILDING_OUTLINE
 10
-26.22396052686052
 20
-33.79372045740416
 30
0.0
  0
VERTEX
  5
437
  8
HCD_BUILDING_OUTLINE
 10
-23.36285570146354
 20
-33.79372045740416
 30
0.0
  0
VERTEX
  5
438
  8
HCD_BUILDING_OUTLINE
 10
-23.36285570146354
 20
-32.83400805760863
 30
0.0
  0
VERTEX
  5
439
  8
HCD_BUILDING_OUTLINE
 10
-15.03229558607016
 20
-32.83400805760863
 30
0.0
  0
SEQEND
  5
43A
  8
HCD_BUILDING_OUTLINE
  0
POLYLINE
  5
43B
  8
HCD_BUILDING_ROOMS
 66
     1
 10
0.0
 20
0.0
 30
0.0
  0
VERTEX
  5
43C
  8
HCD_BUILDING_ROOMS
 10
-17.2563365657861
 20
25.09776274843892
 30
0.0
  0
VERTEX
  5
43D
  8
HCD_BUILDING_ROOMS
 10
-23.37164944237473
 20
25.09776274843892
 30
0.0
  0
VERTEX
  5
43E
  8
HCD_BUILDING_ROOMS
 10
-23.37164944237473
 20
9.255333522420806
 30
0.0
  0
VERTEX
  5
43F
  8
HCD_BUILDING_ROOMS
 10
-8.339159154630345
 20
9.255333522420806
 30
0.0
  0
VERTEX
  5
440
  8
HCD_BUILDING_ROOMS
 10
-8.339159154630345
 20
15.6049277364188
 30
0.0
  0
SEQEND
  5
441
  8
HCD_BUILDING_ROOMS
  0
POLYLINE
  5
442
  8
HCD_BUILDING_ROOMS
 66
     1
 10
0.0
 20
0.0
 30
0.0
  0
VERTEX
  5
443
  8
HCD_BUILDING_ROOMS
 10
-25.52771360876563
 20
-2.869185504784205
 30
0.0
  0
VERTEX
  5
444
  8
HCD_BUILDING_ROOMS
 10
-25.52771360876566
 20
-9.038764854213067
 30
0.0
  0
VERTEX
  5
445
  8
HCD_BUILDING_ROOMS
 10
-26.22396052686052
 20
-9.038764854213067
 30
0.0
  0
SEQEND
  5
446
  8
HCD_BUILDING_ROOMS
  0
LINE
  5
447
  8
HCD_BUILDING_ROOMS
 10
-23.37164944237473
 20
-2.869185504784205
 30
0.0
 11
-25.52771360876563
 21
-2.869185504784205
 31
0.0
  0
LINE
  5
448
  8
HCD_BUILDING_ROOMS
 10
-25.52771360876563
 20
-2.869185504784205
 30
0.0
 11
-31.58543904486628
 21
-2.869185504784205
 31
0.0
  0
LINE
  5
449
  8
HCD_BUILDING_ROOMS
 10
-31.58543904486628
 20
-2.869185504784205
 30
0.0
 11
-31.58543904486633
 21
6.825474414042702
 31
0.0
  0
LINE
  5
44A
  8
HCD_BUILDING_ROOMS
 10
-31.58543904486633
 20
6.825474414042702
 30
0.0
 11
-23.37164944237473
 21
6.825474414042702
 31
0.0
  0
LINE
  5
44B
  8
HCD_BUILDING_ROOMS
 10
-23.37164944237473
 20
6.825474414042702
 30
0.0
 11
-23.37164944237473
 21
-2.869185504784205
 31
0.0
  0
LINE
  5
44D
  8
HCD_BUILDING_INVISIBLE
 10
-23.37164944237473
 20
9.255333522420806
 30
0.0
 11
-23.37164944237473
 21
6.825474414042702
 31
0.0
  0
LINE
  5
44E
  8
HCD_BUILDING_INVISIBLE
 10
-31.58543904486633
 20
6.825474414042702
 30
0.0
 11
-31.58543904486633
 21
9.73982134572946
 31
0.0
  0
LINE
  5
44F
  8
HCD_BUILDING_INVISIBLE
 10
-25.30957102572209
 20
24.83887571130794
 30
0.0
 11
-23.37164944237473
 21
24.83887571130794
 31
0.0
  0
LINE
  5
450
  8
HCD_BUILDING_INVISIBLE
 10
-5.385592655812708
 20
24.94743650891721
 30
0.0
 11
-8.339159154630345
 21
24.94743650891721
 31
0.0
  0
LINE
  5
451
  8
HCD_BUILDING_INVISIBLE
 10
24.88258254459927
 20
9.135333522420915
 30
0.0
 11
27.45818283541657
 21
9.186415682351104
 31
0.0
  0
LINE
  5
452
  8
HCD_BUILDING_INVISIBLE
 10
-8.339159154630345
 20
9.255333522420806
 30
0.0
 11
-5.385592655812708
 21
9.135333522420915
 31
0.0
  0
LINE
  5
453
  8
HCD_BUILDING_INVISIBLE
 10
24.85460717333842
 20
24.79736928734744
 30
0.0
 11
27.45818283541657
 21
24.73285623280778
 31
0.0
  0
LINE
  5
454
  8
HCD_BUILDING_INVISIBLE
 10
21.44972766558477
 20
24.79736928734744
 30
0.0
 11
16.00128499214942
 21
24.79736928734744
 31
0.0
  0
LINE
  5
455
  8
HCD_BUILDING_INVISIBLE
 10
-34.28827178513176
 20
-2.80930337529847
 30
0.0
 11
-31.58543904486628
 21
-2.869185504784205
 31
0.0
  0
ENDSEC
  0
EOF
